<svg width="155" height="46" viewBox="0 0 155 46" fill="none" xmlns="http://www.w3.org/2000/svg">
<g clip-path="url(#clip0_285_103)">
<path d="M149.259 46H5.74074C2.52593 46 0 43.47 0 40.25V5.75C0 2.53 2.52593 0 5.74074 0H149.259C152.474 0 155 2.53 155 5.75V40.25C155 43.47 152.474 46 149.259 46Z" fill="black"/>
<path d="M149.259 0.92C151.9 0.92 154.081 3.105 154.081 5.75V40.25C154.081 42.895 151.9 45.08 149.259 45.08H5.74074C3.1 45.08 0.918519 42.895 0.918519 40.25V5.75C0.918519 3.105 3.1 0.92 5.74074 0.92H149.259ZM149.259 0H5.74074C2.52593 0 0 2.645 0 5.75V40.25C0 43.47 2.52593 46 5.74074 46H149.259C152.474 46 155 43.47 155 40.25V5.75C155 2.645 152.474 0 149.259 0Z" fill="#A6A6A6"/>
<path d="M54.4221 11.7301C54.4221 12.6501 54.1925 13.4551 53.6184 14.0301C52.9295 14.7201 52.1258 15.0651 51.0925 15.0651C50.0591 15.0651 49.2554 14.7201 48.5665 14.0301C47.8776 13.3401 47.5332 12.5351 47.5332 11.5001C47.5332 10.4651 47.8776 9.66006 48.5665 8.97006C49.2554 8.28006 50.0591 7.93506 51.0925 7.93506C51.5517 7.93506 52.011 8.05006 52.4702 8.28006C52.9295 8.51006 53.2739 8.74006 53.5036 9.08506L52.9295 9.66006C52.4702 9.08506 51.8962 8.85506 51.0925 8.85506C50.4036 8.85506 49.7147 9.08506 49.2554 9.66006C48.6814 10.1201 48.4517 10.8101 48.4517 11.6151C48.4517 12.4201 48.6814 13.1101 49.2554 13.5701C49.8295 14.0301 50.4036 14.3751 51.0925 14.3751C51.8962 14.3751 52.4702 14.1451 53.0443 13.5701C53.3888 13.2251 53.6184 12.7651 53.6184 12.1901H51.0925V11.2701H54.4221V11.7301ZM59.7036 8.85506H56.6036V11.0401H59.4739V11.8451H56.6036V14.0301H59.7036V14.9501H55.6851V8.05006H59.7036V8.85506ZM63.4925 14.9501H62.5739V8.85506H60.6221V8.05006H65.4443V8.85506H63.4925V14.9501ZM68.7739 14.9501V8.05006H69.6925V14.9501H68.7739ZM73.5962 14.9501H72.6776V8.85506H70.7258V8.05006H75.4332V8.85506H73.4813L73.5962 14.9501ZM84.5036 14.0301C83.8147 14.7201 83.011 15.0651 81.9776 15.0651C80.9443 15.0651 80.1406 14.7201 79.4517 14.0301C78.7628 13.3401 78.4184 12.5351 78.4184 11.5001C78.4184 10.4651 78.7628 9.66006 79.4517 8.97006C80.1406 8.28006 80.9443 7.93506 81.9776 7.93506C83.011 7.93506 83.8147 8.28006 84.5036 8.97006C85.1925 9.66006 85.5369 10.4651 85.5369 11.5001C85.5369 12.5351 85.1925 13.3401 84.5036 14.0301ZM80.1406 13.4551C80.5999 13.9151 81.2888 14.2601 81.9776 14.2601C82.6665 14.2601 83.3554 14.0301 83.8147 13.4551C84.2739 12.9951 84.6184 12.3051 84.6184 11.5001C84.6184 10.6951 84.3888 10.0051 83.8147 9.54506C83.3554 9.08506 82.6665 8.74006 81.9776 8.74006C81.2888 8.74006 80.5999 8.97006 80.1406 9.54506C79.6814 10.0051 79.3369 10.6951 79.3369 11.5001C79.3369 12.3051 79.5665 12.9951 80.1406 13.4551ZM86.7999 14.9501V8.05006H87.8332L91.1628 13.4551V8.05006H92.0813V14.9501H91.1628L87.6036 9.31506V14.9501H86.7999Z" fill="white" stroke="white" stroke-width="0.2" stroke-miterlimit="10"/>
<path d="M78.1885 25.07C75.4329 25.07 73.2514 27.14 73.2514 30.015C73.2514 32.775 75.4329 34.96 78.1885 34.96C80.944 34.96 83.1255 32.89 83.1255 30.015C83.1255 27.025 80.944 25.07 78.1885 25.07ZM78.1885 32.89C76.6959 32.89 75.4329 31.625 75.4329 29.9C75.4329 28.175 76.6959 26.91 78.1885 26.91C79.6811 26.91 80.944 28.06 80.944 29.9C80.944 31.625 79.6811 32.89 78.1885 32.89ZM67.5107 25.07C64.7551 25.07 62.5737 27.14 62.5737 30.015C62.5737 32.775 64.7551 34.96 67.5107 34.96C70.2663 34.96 72.4477 32.89 72.4477 30.015C72.4477 27.025 70.2663 25.07 67.5107 25.07ZM67.5107 32.89C66.0181 32.89 64.7551 31.625 64.7551 29.9C64.7551 28.175 66.0181 26.91 67.5107 26.91C69.0033 26.91 70.2663 28.06 70.2663 29.9C70.2663 31.625 69.0033 32.89 67.5107 32.89ZM54.7663 26.565V28.635H59.7033C59.5885 29.785 59.1292 30.705 58.5551 31.28C57.8663 31.97 56.7181 32.775 54.7663 32.775C51.6663 32.775 49.37 30.36 49.37 27.255C49.37 24.15 51.7811 21.735 54.7663 21.735C56.3737 21.735 57.6366 22.425 58.5551 23.23L60.0477 21.735C58.7848 20.585 57.1774 19.665 54.8811 19.665C50.7477 19.665 47.1885 23.115 47.1885 27.255C47.1885 31.395 50.7477 34.845 54.8811 34.845C57.1774 34.845 58.7848 34.155 60.1626 32.66C61.5403 31.28 61.9996 29.325 61.9996 27.83C61.9996 27.37 61.9996 26.91 61.8848 26.565H54.7663ZM106.892 28.175C106.433 27.025 105.285 25.07 102.759 25.07C100.233 25.07 98.1663 27.025 98.1663 30.015C98.1663 32.775 100.233 34.96 102.988 34.96C105.17 34.96 106.548 33.58 107.007 32.775L105.4 31.625C104.826 32.43 104.137 33.005 102.988 33.005C101.84 33.005 101.151 32.545 100.577 31.51L107.122 28.75L106.892 28.175ZM100.233 29.785C100.233 27.945 101.726 26.91 102.759 26.91C103.563 26.91 104.366 27.37 104.596 27.945L100.233 29.785ZM94.8366 34.5H97.0181V20.125H94.8366V34.5ZM91.3922 26.105C90.8181 25.53 89.8996 24.955 88.7514 24.955C86.3403 24.955 84.044 27.14 84.044 29.9C84.044 32.66 86.2255 34.73 88.7514 34.73C89.8996 34.73 90.8181 34.155 91.2774 33.58H91.3922V34.27C91.3922 36.11 90.3589 37.145 88.7514 37.145C87.4885 37.145 86.57 36.225 86.3403 35.42L84.5033 36.225C85.0774 37.49 86.4551 39.1 88.8663 39.1C91.3922 39.1 93.4589 37.605 93.4589 34.04V25.3H91.3922V26.105ZM88.8663 32.89C87.3737 32.89 86.1107 31.625 86.1107 29.9C86.1107 28.175 87.3737 26.91 88.8663 26.91C90.3589 26.91 91.507 28.175 91.507 29.9C91.507 31.625 90.3589 32.89 88.8663 32.89ZM116.881 20.125H111.714V34.5H113.896V29.095H116.881C119.292 29.095 121.588 27.37 121.588 24.61C121.588 21.85 119.292 20.125 116.881 20.125ZM116.996 27.025H113.896V22.08H116.996C118.603 22.08 119.522 23.46 119.522 24.495C119.407 25.76 118.488 27.025 116.996 27.025ZM130.2 24.955C128.592 24.955 126.985 25.645 126.411 27.14L128.363 27.945C128.822 27.14 129.511 26.91 130.314 26.91C131.463 26.91 132.496 27.6 132.611 28.75V28.865C132.266 28.635 131.348 28.29 130.429 28.29C128.363 28.29 126.296 29.44 126.296 31.51C126.296 33.465 128.018 34.73 129.855 34.73C131.348 34.73 132.037 34.04 132.611 33.35H132.726V34.5H134.792V28.98C134.563 26.45 132.611 24.955 130.2 24.955ZM129.97 32.89C129.281 32.89 128.248 32.545 128.248 31.625C128.248 30.475 129.511 30.13 130.544 30.13C131.463 30.13 131.922 30.36 132.496 30.59C132.266 31.97 131.118 32.89 129.97 32.89ZM142.026 25.3L139.614 31.51H139.5L136.974 25.3H134.677L138.466 34.04L136.285 38.87H138.466L144.322 25.3H142.026ZM122.737 34.5H124.918V20.125H122.737V34.5Z" fill="white"/>
<path d="M11.9407 8.625C11.5963 8.97 11.4814 9.545 11.4814 10.235V35.65C11.4814 36.34 11.7111 36.915 12.0555 37.26L12.1703 37.375L26.4074 23.115V22.885L11.9407 8.625Z" fill="url(#paint0_linear_285_103)"/>
<path d="M31.0004 27.9449L26.293 23.2299V22.8849L31.0004 18.1699L31.1152 18.2849L36.7411 21.5049C38.3485 22.4249 38.3485 23.9199 36.7411 24.8399L31.0004 27.9449Z" fill="url(#paint1_linear_285_103)"/>
<path d="M31.1145 27.83L26.2923 23L11.9404 37.375C12.5145 37.95 13.3182 37.95 14.3515 37.49L31.1145 27.83Z" fill="url(#paint2_linear_285_103)"/>
<path d="M31.1145 18.1701L14.3515 8.6251C13.3182 8.0501 12.5145 8.1651 11.9404 8.7401L26.2923 23.0001L31.1145 18.1701Z" fill="url(#paint3_linear_285_103)"/>
<path opacity="0.2" d="M30.9997 27.7151L14.3515 37.1451C13.433 37.7201 12.6293 37.6051 12.0552 37.1451L11.9404 37.2601L12.0552 37.3751C12.6293 37.8351 13.433 37.9501 14.3515 37.3751L30.9997 27.7151Z" fill="black"/>
<path opacity="0.12" d="M11.9407 37.145C11.5963 36.8 11.4814 36.225 11.4814 35.535V35.65C11.4814 36.34 11.7111 36.915 12.0555 37.26V37.145H11.9407ZM36.7407 24.495L31 27.715L31.1148 27.83L36.7407 24.61C37.5444 24.15 37.8889 23.575 37.8889 23C37.8889 23.575 37.4296 24.035 36.7407 24.495Z" fill="black"/>
<path opacity="0.25" d="M14.3518 8.7399L36.7407 21.5049C37.4296 21.9649 37.8889 22.4249 37.8889 22.9999C37.8889 22.4249 37.5444 21.8499 36.7407 21.3899L14.3518 8.7399C12.7444 7.7049 11.4814 8.3949 11.4814 10.2349V10.3499C11.4814 8.6249 12.7444 7.8199 14.3518 8.7399Z" fill="white"/>
</g>
<defs>
<linearGradient id="paint0_linear_285_103" x1="25.0239" y1="10.0108" x2="5.72343" y2="29.2789" gradientUnits="userSpaceOnUse">
<stop stop-color="#00A0FF"/>
<stop offset="0.007" stop-color="#00A1FF"/>
<stop offset="0.26" stop-color="#00BEFF"/>
<stop offset="0.512" stop-color="#00D2FF"/>
<stop offset="0.76" stop-color="#00DFFF"/>
<stop offset="1" stop-color="#00E3FF"/>
</linearGradient>
<linearGradient id="paint1_linear_285_103" x1="38.8468" y1="23.0574" x2="11.0651" y2="23.0574" gradientUnits="userSpaceOnUse">
<stop stop-color="#FFE000"/>
<stop offset="0.409" stop-color="#FFBD00"/>
<stop offset="0.775" stop-color="#FFA500"/>
<stop offset="1" stop-color="#FF9C00"/>
</linearGradient>
<linearGradient id="paint2_linear_285_103" x1="28.4921" y1="25.6277" x2="2.32047" y2="51.7573" gradientUnits="userSpaceOnUse">
<stop stop-color="#FF3A44"/>
<stop offset="1" stop-color="#C31162"/>
</linearGradient>
<linearGradient id="paint3_linear_285_103" x1="8.33639" y1="0.243905" x2="20.0238" y2="11.9125" gradientUnits="userSpaceOnUse">
<stop stop-color="#32A071"/>
<stop offset="0.069" stop-color="#2DA771"/>
<stop offset="0.476" stop-color="#15CF74"/>
<stop offset="0.801" stop-color="#06E775"/>
<stop offset="1" stop-color="#00F076"/>
</linearGradient>
<clipPath id="clip0_285_103">
<rect width="155" height="46" fill="white"/>
</clipPath>
</defs>
</svg>
