<svg width="141" height="47" viewBox="0 0 141 47" fill="none" xmlns="http://www.w3.org/2000/svg">
<g clip-path="url(#clip0_285_115)">
<path d="M129.692 0H8.83459C8.01003 0 7.30326 0.1175 6.4787 0.235C5.77193 0.3525 4.94737 0.5875 4.2406 0.94C3.53383 1.2925 2.94486 1.7625 2.35589 2.35C1.76692 2.9375 1.29574 3.525 0.942356 4.23C0.588972 4.935 0.353383 5.7575 0.235589 6.4625C0.117794 7.285 0 8.1075 0 8.8125V38.07C0 38.8925 0.117794 39.5975 0.235589 40.42C0.353383 41.2425 0.588972 41.9475 0.942356 42.6525C1.29574 43.475 1.76692 44.0625 2.35589 44.65C2.94486 45.2375 3.53383 45.7075 4.2406 46.06C4.94737 46.4125 5.65414 46.6475 6.4787 46.765C7.30326 46.8825 8.01003 47 8.83459 47H132.048C132.872 47 133.579 46.8825 134.404 46.765C135.228 46.6475 135.935 46.4125 136.642 46.06C137.348 45.7075 137.937 45.2375 138.526 44.65C139.115 44.0625 139.586 43.475 139.94 42.77C140.293 42.065 140.529 41.36 140.647 40.5375C140.764 39.715 140.882 39.01 140.882 38.1875V37.13V11.1625V9.87V8.8125C140.882 7.99 140.764 7.285 140.647 6.4625C140.529 5.64 140.293 4.935 139.94 4.23C139.233 2.82 138.055 1.645 136.642 0.94C135.935 0.5875 135.228 0.3525 134.404 0.235C133.579 0.1175 132.872 0 132.048 0L129.692 0Z" fill="#A6A6A6"/>
<path d="M9.89476 45.9426H8.83461C8.12785 45.9426 7.30329 45.8251 6.59652 45.7076C5.88975 45.5901 5.30078 45.3551 4.59401 45.1201C4.00504 44.7676 3.41607 44.4151 2.94489 43.9451C2.47371 43.4751 2.00253 42.8876 1.76694 42.3001C1.41356 41.7126 1.29577 41.0076 1.17797 40.3026C1.06018 39.5976 0.942383 38.8926 0.942383 38.0701V9.87012V8.81262C0.942383 8.10762 1.06018 7.28512 1.17797 6.58012C1.29577 5.99262 1.53136 5.28762 1.88474 4.70012C2.23812 4.11262 2.59151 3.52512 3.06268 3.05512C3.53386 2.58512 4.12283 2.23262 4.71181 1.88012C5.30078 1.52762 6.00755 1.41012 6.71431 1.29262C7.42108 1.17512 8.12785 1.05762 8.95241 1.05762H132.165C132.872 1.05762 133.579 1.17512 134.404 1.29262C135.11 1.41012 135.699 1.64512 136.406 1.88012C137.584 2.46762 138.644 3.52512 139.233 4.70012C139.586 5.28762 139.704 5.99262 139.822 6.58012C139.94 7.28512 140.058 8.10762 140.058 8.81262V38.0701C140.058 38.7751 139.94 39.4801 139.822 40.3026C139.704 41.0076 139.469 41.5951 139.233 42.3001C138.88 42.8876 138.526 43.4751 138.055 43.9451C137.584 44.4151 136.995 44.8851 136.406 45.1201C135.817 45.4726 135.11 45.7076 134.404 45.7076C133.697 45.8251 132.99 45.9426 132.165 45.9426H9.89476Z" fill="black"/>
<path d="M29.2134 23.8524C29.2134 21.8549 30.2735 19.9749 32.0405 18.9174C30.9803 17.3899 29.2134 16.4499 27.3287 16.3324C25.3262 16.0974 23.4415 17.5074 22.3813 17.5074C21.3212 17.5074 19.7898 16.3324 18.1407 16.3324C15.9026 16.4499 13.9001 17.6249 12.8399 19.5049C10.6019 23.3824 12.251 29.2574 14.4891 32.4299C15.5492 33.9574 16.845 35.7199 18.4941 35.7199C20.1432 35.6024 20.7322 34.6624 22.7347 34.6624C24.7372 34.6624 25.2084 35.7199 26.9753 35.7199C28.7422 35.7199 29.8024 34.1924 30.8625 32.5474C31.6871 31.4899 32.276 30.1974 32.6294 28.9049C30.5091 28.1999 29.2134 26.0849 29.2134 23.8524ZM25.9151 14.3349C26.8575 13.1599 27.3287 11.7499 27.2109 10.2224C25.7973 10.3399 24.3838 11.0449 23.4415 12.2199C22.4991 13.2774 22.0279 14.6874 22.1457 16.2149C23.677 16.2149 24.9728 15.5099 25.9151 14.3349ZM49.8274 31.8424H44.2911L42.9953 35.8374H40.6394L45.9402 21.2674H48.2961L53.5968 35.8374H51.241L49.8274 31.8424ZM44.88 30.0799H49.3562L47.1181 23.6174H47.0004L44.88 30.0799ZM65.0229 30.5499C65.0229 33.8399 63.256 35.9549 60.5467 35.9549C59.1332 36.0724 57.8374 35.2499 57.2485 34.0749V39.3624H55.0104V25.2624H57.1307V27.0249C57.8374 25.8499 59.1332 25.1449 60.5467 25.1449C63.1382 25.0274 65.0229 27.2599 65.0229 30.5499ZM62.667 30.5499C62.667 28.4349 61.6069 27.0249 59.84 27.0249C58.1908 27.0249 57.0129 28.4349 57.0129 30.5499C57.0129 32.6649 58.1908 34.0749 59.84 34.0749C61.6069 34.0749 62.667 32.6649 62.667 30.5499ZM76.6846 30.5499C76.6846 33.8399 74.9176 35.9549 72.2084 35.9549C70.7948 36.0724 69.4991 35.2499 68.9101 34.0749V39.3624H66.672V25.2624H68.7923V27.0249C69.4991 25.8499 70.7948 25.1449 72.2084 25.1449C74.9176 25.0274 76.6846 27.2599 76.6846 30.5499ZM74.4465 30.5499C74.4465 28.4349 73.3863 27.0249 71.6194 27.0249C69.9703 27.0249 68.7923 28.4349 68.7923 30.5499C68.7923 32.6649 69.9703 34.0749 71.6194 34.0749C73.3863 34.0749 74.4465 32.6649 74.4465 30.5499ZM84.459 31.7249C84.5768 33.1349 85.9903 34.0749 87.9928 34.0749C89.8775 34.0749 91.1733 33.1349 91.1733 31.8424C91.1733 30.6674 90.3487 30.0799 88.464 29.6099L86.5793 29.1399C83.87 28.5524 82.6921 27.2599 82.6921 25.2624C82.6921 22.7949 84.9302 21.0324 87.9928 21.0324C91.0555 21.0324 93.1758 22.7949 93.2936 25.2624H91.0555C90.9377 23.8524 89.7598 22.9124 87.9928 22.9124C86.2259 22.9124 85.048 23.8524 85.048 25.1449C85.048 26.2024 85.8725 26.7899 87.7572 27.2599L89.4064 27.6124C92.3512 28.3174 93.647 29.4924 93.647 31.6074C93.647 34.3099 91.5267 36.0724 87.9928 36.0724C84.6946 36.0724 82.5743 34.4274 82.4565 31.7249H84.459ZM98.1232 22.6774V25.1449H100.126V26.9074H98.1232V32.7824C98.1232 33.7224 98.4765 34.0749 99.4189 34.0749H100.126V35.8374C99.7723 35.9549 99.3011 35.9549 98.9477 35.9549C96.8274 35.9549 96.0029 35.1324 96.0029 33.1349V27.0249H94.4715V25.2624H96.0029V22.7949H98.1232V22.6774ZM101.421 30.5499C101.421 27.2599 103.424 25.1449 106.487 25.1449C109.549 25.1449 111.552 27.2599 111.552 30.5499C111.552 33.9574 109.549 35.9549 106.487 35.9549C103.306 35.9549 101.421 33.8399 101.421 30.5499ZM109.314 30.5499C109.314 28.1999 108.253 26.9074 106.487 26.9074C104.72 26.9074 103.66 28.1999 103.66 30.5499C103.66 32.8999 104.72 34.1924 106.487 34.1924C108.253 34.1924 109.314 32.7824 109.314 30.5499ZM113.319 25.1449H115.439V27.0249C115.675 25.8499 116.852 25.0274 118.03 25.1449C118.266 25.1449 118.502 25.1449 118.737 25.2624V27.2599C118.384 27.1424 118.03 27.1424 117.795 27.1424C116.617 27.1424 115.557 28.0824 115.557 29.2574V35.9549H113.319V25.1449ZM128.868 32.6649C128.632 34.5449 126.747 35.9549 124.274 35.9549C121.211 35.9549 119.208 33.8399 119.208 30.5499C119.208 27.2599 121.093 25.0274 124.156 25.0274C127.101 25.0274 128.985 27.0249 128.985 30.3149V31.0199H121.446V31.1374C121.329 32.6649 122.389 33.9574 123.92 34.1924H124.274C125.334 34.3099 126.394 33.7224 126.747 32.6649H128.868ZM121.446 29.4924H126.747C126.865 28.0824 125.687 26.9074 124.274 26.7899H124.038C122.624 26.7899 121.446 27.9649 121.446 29.4924Z" fill="white"/>
<path d="M44.5261 10.2226C46.293 10.1051 47.7065 11.3976 47.8243 13.0426V13.6301C47.8243 15.8626 46.6464 17.1551 44.5261 17.1551H41.9346V10.1051L44.5261 10.2226ZM43.1125 16.3326H44.4083C45.5862 16.4501 46.6464 15.5101 46.7641 14.2176V13.7476C46.8819 12.5726 46.0574 11.3976 44.8794 11.2801H43.1125V16.3326ZM49.12 14.5701C49.0022 13.1601 50.0624 11.9851 51.3581 11.8676C52.7717 11.7501 53.9496 12.8076 54.0674 14.1001V14.5701C54.1852 15.9801 53.2428 17.1551 51.8293 17.2726C50.4158 17.3901 49.2378 16.4501 49.12 15.0401V14.5701ZM53.0073 14.5701C53.0073 13.3951 52.5361 12.8076 51.5937 12.8076C50.6514 12.8076 50.1802 13.5126 50.1802 14.5701C50.1802 15.7451 50.6514 16.4501 51.5937 16.4501C52.5361 16.4501 53.0073 15.7451 53.0073 14.5701ZM60.7817 17.2726H59.7215L58.6614 13.3951H58.5436L57.4834 17.2726H56.4233L55.0098 11.9851H56.0699L57.0123 15.9801H57.1301L58.1902 11.9851H59.2504L60.3105 15.9801H60.4283L61.3707 11.9851H62.4308L60.7817 17.2726ZM63.491 11.9851H64.5511V12.8076H64.6689C64.9045 12.2201 65.6113 11.8676 66.2002 11.8676C67.1426 11.7501 67.9672 12.4551 68.0849 13.5126V17.2726H67.0248V14.1001C67.0248 13.2776 66.6714 12.8076 65.8469 12.8076C65.1401 12.8076 64.5511 13.2776 64.5511 13.9826V17.2726H63.491V11.9851ZM69.6163 9.87012H70.6764V17.2726H69.6163V9.87012ZM72.09 14.5701C71.9722 13.1601 72.9145 11.9851 74.3281 11.8676C75.7416 11.7501 76.9195 12.6901 77.0373 14.1001V14.5701C77.1551 15.9801 76.2128 17.1551 74.7992 17.2726C73.3857 17.3901 72.2078 16.4501 72.09 15.0401V14.5701ZM76.095 14.5701C76.095 13.3951 75.6238 12.8076 74.6814 12.8076C73.7391 12.8076 73.2679 13.5126 73.2679 14.5701C73.2679 15.7451 73.7391 16.4501 74.6814 16.4501C75.506 16.4501 76.095 15.7451 76.095 14.5701ZM78.2153 15.7451C78.2153 14.8051 78.922 14.2176 80.2178 14.2176L81.6313 14.1001V13.6301C81.6313 13.0426 81.2779 12.8076 80.5712 12.8076C79.9822 12.8076 79.6288 13.0426 79.511 13.3951H78.4509C78.5687 12.4551 79.3932 11.8676 80.5712 11.8676C81.8669 11.8676 82.6915 12.5726 82.6915 13.6301V17.2726H81.6313V16.5676H81.5135C81.1601 17.1551 80.5712 17.3901 79.8644 17.3901C79.0398 17.5076 78.2153 16.8026 78.0975 15.9801C78.2153 15.8626 78.2153 15.8626 78.2153 15.7451ZM81.6313 15.2751V14.8051L80.3356 14.9226C79.6288 14.9226 79.2754 15.2751 79.2754 15.6276C79.2754 16.0976 79.7466 16.3326 80.2178 16.3326C80.9245 16.5676 81.5135 16.0976 81.6313 15.2751C81.6313 15.3926 81.6313 15.3926 81.6313 15.2751ZM83.9872 14.5701C83.9872 12.9251 84.8118 11.8676 86.2253 11.8676C86.9321 11.8676 87.521 12.2201 87.8744 12.8076H87.9922V9.87012H89.0524V17.2726H87.9922V16.4501H87.8744C87.521 17.0376 86.9321 17.3901 86.2253 17.3901C84.9296 17.3901 83.9872 16.3326 83.9872 14.5701ZM85.1652 14.5701C85.1652 15.7451 85.6363 16.3326 86.5787 16.3326C87.521 16.3326 87.9922 15.6276 87.9922 14.5701C87.9922 13.5126 87.4032 12.8076 86.5787 12.8076C85.6363 12.8076 85.1652 13.5126 85.1652 14.5701ZM93.293 14.5701C93.1752 13.1601 94.1175 11.9851 95.5311 11.8676C96.9446 11.7501 98.1225 12.6901 98.2403 14.1001V14.5701C98.3581 15.9801 97.4158 17.1551 96.0022 17.2726C94.5887 17.3901 93.4108 16.4501 93.293 15.0401V14.5701ZM97.298 14.5701C97.298 13.3951 96.8268 12.8076 95.8844 12.8076C94.9421 12.8076 94.4709 13.5126 94.4709 14.5701C94.4709 15.7451 94.9421 16.4501 95.8844 16.4501C96.709 16.4501 97.298 15.7451 97.298 14.5701ZM99.7717 11.9851H100.832V12.8076H100.95C101.185 12.2201 101.892 11.8676 102.481 11.8676C103.423 11.7501 104.248 12.4551 104.366 13.5126V17.2726H103.305V14.1001C103.305 13.2776 102.952 12.8076 102.128 12.8076C101.421 12.8076 100.832 13.2776 100.832 13.9826V17.2726H99.7717V11.9851ZM110.138 10.6926V11.9851H111.316V12.9251H110.138V15.6276C110.138 16.2151 110.373 16.4501 110.844 16.4501H111.198V17.2726H110.609C109.431 17.2726 108.96 16.9201 108.96 15.8626V12.9251H108.135V12.1026H108.96V10.6926H110.138ZM112.729 9.87012H113.789V12.8076H113.907C114.143 12.2201 114.849 11.7501 115.556 11.8676C116.498 11.8676 117.323 12.5726 117.441 13.5126V17.2726H116.381V14.1001C116.381 13.2776 116.027 12.8076 115.203 12.8076C114.496 12.8076 113.907 13.2776 113.907 13.9826V17.2726H112.847V9.87012H112.729ZM123.448 15.8626C123.213 16.8026 122.153 17.5076 121.21 17.3901C119.915 17.3901 118.737 16.3326 118.737 15.0401V14.6876C118.501 13.3951 119.443 12.1026 120.857 11.9851H121.21C122.742 11.9851 123.566 13.0426 123.566 14.6876V15.0401H119.797V15.1576C119.679 15.9801 120.268 16.5676 121.092 16.6851H121.21C121.681 16.8026 122.27 16.4501 122.506 16.0976H123.448V15.8626ZM119.679 14.1001H122.388C122.388 13.3951 121.917 12.8076 121.21 12.6901H121.092C120.386 12.8076 119.679 13.3951 119.679 14.1001Z" fill="white"/>
</g>
<defs>
<clipPath id="clip0_285_115">
<rect width="141" height="47" fill="white"/>
</clipPath>
</defs>
</svg>
