<svg width="67" height="15" viewBox="0 0 67 15" fill="none" xmlns="http://www.w3.org/2000/svg">
<path d="M6.36373 0.198808L3.94895 14.7443H8.87793e-05L2.41486 0.198808H6.36373ZM8.23517 0.198808H13.1499L15.167 8.43744H15.3374L20.0818 0.198808H24.9965L22.5818 14.7443H18.7181L20.1102 6.33517H19.9965L15.3943 14.6306H13.0647L11.2181 6.27835H11.1045L9.68404 14.7443H5.8204L8.23517 0.198808ZM35.5186 4.99994C35.4996 4.749 35.4475 4.52883 35.3623 4.33943C35.2771 4.1453 35.1563 3.98195 35.0001 3.84938C34.8438 3.71207 34.6497 3.61027 34.4177 3.54398C34.1904 3.47296 33.9229 3.43744 33.6151 3.43744C32.9523 3.43744 32.3486 3.59606 31.8041 3.9133C31.2596 4.23053 30.8026 4.68744 30.4333 5.28404C30.0687 5.88063 29.8178 6.60032 29.6805 7.44313C29.5384 8.2954 29.5266 9.02457 29.645 9.63063C29.7633 10.2367 30.019 10.7007 30.412 11.0227C30.8097 11.3446 31.3472 11.5056 32.0242 11.5056C32.6303 11.5056 33.1535 11.418 33.5938 11.2428C34.0342 11.0677 34.3869 10.8191 34.6521 10.4971C34.9172 10.1751 35.0829 9.79635 35.1492 9.36074L35.8311 9.43176H32.5072L32.9617 6.61926H39.4106L39.0839 8.63631C38.8661 9.96207 38.3973 11.0961 37.6776 12.0383C36.9627 12.9758 36.0725 13.6955 35.0072 14.1974C33.9419 14.6945 32.7723 14.9431 31.4987 14.9431C30.0877 14.9431 28.8969 14.6425 27.9262 14.0411C26.9556 13.4398 26.2619 12.5828 25.8453 11.4701C25.4333 10.3574 25.3528 9.03404 25.6038 7.49994C25.8026 6.29729 26.1625 5.23195 26.6833 4.30392C27.2089 3.37589 27.8505 2.59227 28.608 1.95307C29.3656 1.30913 30.2013 0.823808 31.1151 0.497103C32.029 0.165664 32.9759 -5.60284e-05 33.9561 -5.60284e-05C34.8131 -5.60284e-05 35.5919 0.12305 36.2927 0.369263C36.9935 0.610739 37.5924 0.956383 38.0896 1.40619C38.5867 1.85127 38.9584 2.37921 39.2046 2.99C39.4556 3.6008 39.5574 4.27078 39.51 4.99994H35.5186ZM39.9024 14.7443L42.3172 0.198808H48.5956C49.6752 0.198808 50.5843 0.411876 51.3229 0.838013C52.0615 1.26415 52.5918 1.86311 52.9138 2.63489C53.2358 3.40667 53.3115 4.30866 53.1411 5.34085C52.9706 6.39199 52.5918 7.29871 52.0047 8.06102C51.4223 8.8186 50.6789 9.40335 49.7746 9.81529C48.875 10.2225 47.8664 10.4261 46.749 10.4261H42.999L43.5104 7.3579H46.4649C46.9384 7.3579 47.3551 7.27741 47.7149 7.11642C48.0748 6.9507 48.366 6.71869 48.5885 6.4204C48.8111 6.11737 48.9555 5.75752 49.0218 5.34085C49.088 4.92419 49.0573 4.56907 48.9294 4.27551C48.8063 3.97722 48.5932 3.74994 48.2902 3.59369C47.9919 3.43271 47.6108 3.35222 47.1468 3.35222H45.7547L43.8513 14.7443H39.9024ZM53.0274 14.7443L55.4422 0.198808H61.7206C62.8002 0.198808 63.7093 0.411876 64.4479 0.838013C65.1865 1.26415 65.7168 1.86311 66.0388 2.63489C66.3608 3.40667 66.4365 4.30866 66.2661 5.34085C66.0956 6.39199 65.7168 7.29871 65.1297 8.06102C64.5473 8.8186 63.8039 9.40335 62.8996 9.81529C62 10.2225 60.9914 10.4261 59.874 10.4261H56.124L56.6354 7.3579H59.5899C60.0634 7.3579 60.4801 7.27741 60.8399 7.11642C61.1998 6.9507 61.491 6.71869 61.7135 6.4204C61.9361 6.11737 62.0805 5.75752 62.1468 5.34085C62.213 4.92419 62.1823 4.56907 62.0544 4.27551C61.9313 3.97722 61.7182 3.74994 61.4152 3.59369C61.1169 3.43271 60.7358 3.35222 60.2718 3.35222H58.8797L56.9763 14.7443H53.0274Z" fill="url(#paint0_linear_1_645)"/>
<defs>
<linearGradient id="paint0_linear_1_645" x1="12.255" y1="7.74426" x2="73.559" y2="-4.80603" gradientUnits="userSpaceOnUse">
<stop stop-color="#2D90EC"/>
<stop offset="1" stop-opacity="0"/>
</linearGradient>
</defs>
</svg>
