<svg width="22" height="23" viewBox="0 0 22 23" fill="none" xmlns="http://www.w3.org/2000/svg">
<path d="M10.7179 0H11.076C11.1508 0.0286933 11.2232 0.0636242 11.3005 0.0848323L20.158 2.54871C20.6308 2.68095 20.808 2.88929 20.8629 3.37957C21.0607 5.10535 21.1403 6.84264 21.1011 8.57929C21.0791 10.2414 20.8813 11.8965 20.5111 13.517C20.2241 14.7109 19.8424 15.8724 19.16 16.9016C17.3698 19.6062 14.9184 21.49 11.8931 22.6228C10.9038 22.997 10.8951 22.9746 9.89705 22.6228C9.84715 22.6053 9.79974 22.5841 9.75109 22.5666C7.61117 21.7566 5.68461 20.4684 4.11847 18.8003C2.81106 17.4156 1.87291 15.8337 1.39511 13.9724C1.01173 12.4474 0.783513 10.8875 0.713952 9.31658C0.62589 7.32001 0.698481 5.31959 0.931023 3.33466C0.940726 3.14733 1.01261 2.96859 1.13529 2.82669C1.25798 2.6848 1.42447 2.58786 1.60843 2.55121C4.02615 1.88586 6.44263 1.21468 8.85785 0.537687C9.48037 0.36428 10.0979 0.179645 10.7179 0ZM10.0156 11.7268C9.96467 11.6391 9.90667 11.5556 9.84216 11.4773C9.06453 10.6955 8.28482 9.91498 7.50303 9.13569C7.12129 8.76143 6.70835 8.76143 6.32411 9.13569C6.1008 9.34777 5.87874 9.56858 5.66541 9.79314C5.30238 10.1674 5.30363 10.5803 5.67539 10.9533C6.93041 12.2175 8.18917 13.4775 9.45168 14.7334C9.81346 15.0939 10.2351 15.0964 10.5957 14.7334C12.6632 12.6691 14.7292 10.6024 16.7934 8.53313C17.1415 8.18382 17.139 7.75966 16.7934 7.40411C16.5976 7.20076 16.3942 7.00241 16.1934 6.8028C15.7205 6.32999 15.3413 6.32874 14.8722 6.79656C13.3194 8.35349 11.7659 9.90999 10.2114 11.4661C10.1408 11.5489 10.0754 11.6359 10.0156 11.7268Z" fill="white"/>
</svg>
