<svg width="25" height="26" viewBox="0 0 25 26" fill="none" xmlns="http://www.w3.org/2000/svg">
<path d="M4.93755 14.5281C4.92256 10.235 8.43546 6.71116 12.7464 6.6914C13.7791 6.68575 14.8028 6.88384 15.7589 7.27434C16.715 7.66484 17.5847 8.24007 18.3182 8.96711C19.0517 9.69415 19.6346 10.5587 20.0335 11.5113C20.4325 12.4639 20.6396 13.4859 20.6431 14.5186C20.6526 18.8356 17.1513 22.3669 12.8363 22.3915C8.49611 22.4153 4.95458 18.8895 4.93755 14.5281ZM7.32878 15.8495L7.2947 15.7813C7.53117 15.5974 7.76627 15.412 8.00274 15.228C8.32779 14.9745 8.62491 14.6999 8.77006 14.2971C9.04264 13.538 8.7244 12.7482 8.02591 12.4572C7.40442 12.201 6.63506 12.5288 6.32227 13.1836C6.1996 13.4392 6.26025 13.6804 6.47832 13.8024C6.69639 13.9244 6.91513 13.8549 7.07119 13.6279C7.1148 13.5646 7.15296 13.4978 7.20135 13.4392C7.32878 13.2845 7.48415 13.1816 7.69063 13.2647C7.89711 13.3479 7.98775 13.5026 7.9932 13.7227C8.00069 14.0273 7.83919 14.2365 7.62044 14.4137C7.35672 14.6276 7.08005 14.8266 6.82246 15.0481C6.65769 15.1839 6.52242 15.3519 6.42492 15.5419C6.32742 15.7318 6.26977 15.9397 6.25548 16.1527C6.22891 16.5255 6.40063 16.717 6.76998 16.7204C7.29743 16.7249 7.82488 16.7249 8.35232 16.7204C8.67533 16.7204 8.86478 16.5459 8.86137 16.2754C8.85797 16.0049 8.67602 15.8529 8.34006 15.8502C8.0041 15.8474 7.66337 15.8495 7.33014 15.8495H7.32878ZM10.6052 14.9636V14.6651C10.6052 14.0443 10.6052 13.4228 10.6052 12.802C10.6052 12.5676 10.4839 12.4163 10.2502 12.3713C10.1496 12.3499 10.0446 12.3672 9.95622 12.4198C9.86781 12.4723 9.80245 12.5562 9.77316 12.6548C9.74922 12.7362 9.73773 12.8208 9.73909 12.9056C9.73909 13.697 9.73909 14.4884 9.73909 15.2798C9.73909 15.6941 9.89582 15.8468 10.3115 15.8502C10.5541 15.8502 10.7967 15.8502 11.0345 15.8502C11.1027 16.5466 11.1933 16.7408 11.4843 16.7143C12.0295 16.6645 11.8993 16.2141 11.9375 15.8638C12.2877 15.8202 12.7791 15.9544 12.7797 15.4086C12.7804 14.8627 12.2768 15.0168 11.9409 14.9629C11.8884 14.6167 12.0438 14.1213 11.4857 14.1213C10.9275 14.1213 11.0959 14.6236 11.0373 14.9636H10.6052ZM17.6644 13.2307C17.5963 13.3472 17.5554 13.4187 17.5111 13.4882C16.9836 14.3319 16.4535 15.1735 15.9294 16.0192C15.7802 16.2597 15.8361 16.5139 16.046 16.6475C16.2559 16.781 16.5025 16.7245 16.6634 16.4894C16.7499 16.3633 16.8262 16.2304 16.9073 16.1003C17.5338 15.0981 18.1598 14.0956 18.7854 13.093C19.0062 12.7366 18.8536 12.3747 18.4665 12.3645C17.7353 12.3454 17.0027 12.3523 16.2715 12.3645C16.2157 12.3628 16.1601 12.3726 16.1082 12.3932C16.0563 12.4138 16.0092 12.4448 15.9697 12.4843C15.9302 12.5238 15.8993 12.571 15.8788 12.623C15.8583 12.6749 15.8486 12.7305 15.8504 12.7863C15.8504 13.033 16.0112 13.2027 16.2824 13.2272C16.3751 13.2354 16.4691 13.2313 16.5632 13.2313L17.6644 13.2307ZM13.235 16.6311C13.2206 17.0332 13.5668 17.2771 13.8517 17.0932C13.9785 16.9987 14.0673 16.8618 14.1018 16.7074C14.2742 15.9183 14.4234 15.1244 14.5788 14.3319C14.7028 13.7063 14.833 13.0814 14.9488 12.4545C14.9618 12.398 14.963 12.3394 14.9524 12.2824C14.9418 12.2254 14.9197 12.1711 14.8873 12.123C14.8549 12.0749 14.813 12.034 14.7641 12.0027C14.7153 11.9715 14.6606 11.9506 14.6033 11.9413C14.3832 11.897 14.1788 12.034 14.1072 12.278C14.0875 12.3427 14.0766 12.4102 14.0629 12.477C13.9007 13.2861 13.7386 14.095 13.5764 14.9036C13.4632 15.4951 13.346 16.0873 13.2384 16.6304L13.235 16.6311Z" fill="white"/>
<path d="M3.19077 11.4711H2.31374C2.29193 7.85937 3.63304 4.90867 6.49311 2.69325C9.80976 0.124162 14.4484 -0.128659 18.1351 2.05336C21.8497 4.25242 23.4198 8.18647 23.2358 11.4622H22.401C22.4153 8.01202 21.0988 5.20101 18.2625 3.17572C16.4908 1.91094 14.4859 1.35351 12.3168 1.46799C9.69868 1.60428 7.47849 2.651 5.70671 4.58566C3.93492 6.52031 3.14034 8.83794 3.19077 11.4711Z" fill="white"/>
<path d="M4.06391 15.4247C4.06391 16.2425 4.06391 17.0602 4.06391 17.878C4.06391 18.3223 3.92762 18.4634 3.48944 18.464C2.97017 18.464 2.45022 18.4681 1.93095 18.464C1.13978 18.4552 0.582351 17.8977 0.578943 17.1059C0.573946 15.9733 0.573946 14.8405 0.578943 13.7075C0.582351 12.9347 1.10775 12.3854 1.88461 12.3602C2.44613 12.3411 3.00833 12.35 3.57054 12.3602C3.91126 12.365 4.05505 12.5211 4.06391 12.872V15.4275V15.4247Z" fill="white"/>
<path d="M21.5181 15.3941C21.5181 14.5682 21.5181 13.7416 21.5181 12.9157C21.5181 12.5013 21.6543 12.3589 22.0632 12.3555C22.5832 12.3521 23.1024 12.3487 23.6217 12.3555C24.4681 12.3684 24.9989 12.9116 25.0003 13.7627C25.0003 14.8617 25.0003 15.9604 25.0003 17.0589C25.0003 17.9148 24.4497 18.46 23.591 18.4627C23.0718 18.4627 22.5525 18.4627 22.0326 18.4627C21.6741 18.4627 21.5228 18.3067 21.5146 17.9496V15.3941H21.5181Z" fill="white"/>
<path d="M22.369 19.3447H23.2549C23.1868 19.7086 23.1411 20.0596 23.0505 20.3969C22.7323 21.563 22.0483 22.5961 21.099 23.3444C20.1498 24.0927 18.9855 24.5166 17.7774 24.5538C17.0462 24.5756 16.3143 24.5606 15.5824 24.5613C15.5283 24.5581 15.4744 24.5519 15.4209 24.5429V23.704C15.5149 23.6992 15.6049 23.6924 15.6935 23.6917C16.3572 23.6917 17.0216 23.7006 17.6847 23.6863C18.8446 23.6656 19.9574 23.2239 20.8158 22.4436C21.6742 21.6633 22.2197 20.5976 22.3506 19.4449C22.3527 19.4197 22.3595 19.3952 22.369 19.3447Z" fill="white"/>
<path d="M12.9743 23.2637C13.3307 23.2637 13.6878 23.2603 14.0449 23.2637C14.372 23.2678 14.5267 23.4232 14.5322 23.7496C14.5362 24.0133 14.5376 24.277 14.5322 24.5401C14.5253 24.8297 14.3611 24.9994 14.0681 25.0021C13.3457 25.0082 12.6234 25.013 11.9011 25.0021C11.7858 25.0009 11.6721 24.9766 11.5665 24.9305C11.4609 24.8844 11.3656 24.8175 11.2865 24.7338C11.2073 24.6501 11.1458 24.5513 11.1056 24.4434C11.0654 24.3354 11.0474 24.2204 11.0526 24.1053C11.0635 23.6283 11.4315 23.2739 11.9297 23.2658C12.2772 23.2589 12.6254 23.2637 12.9743 23.2637Z" fill="white"/>
</svg>
