<svg width="180" height="45" viewBox="0 0 180 45" fill="none" xmlns="http://www.w3.org/2000/svg">
<path d="M36.0757 36.3673H28.0967V10.2411H36.0757V36.3673Z" fill="white"/>
<path d="M81.233 12.955H81.3471C82.9428 10.6673 85.3364 9.39026 88.3004 9.39026C89.4403 9.39026 90.5802 9.65612 91.606 10.029L90.6371 16.9461C89.6682 16.3074 88.5283 15.9881 87.3315 15.9881C81.8029 15.9881 81.233 20.564 81.233 24.6082V36.3675H73.2539V10.2413H81.233V12.955Z" fill="white"/>
<path d="M100.611 24.5016C100.611 27.8005 101.979 31.5253 106.139 31.5253C108.761 31.5253 110.415 30.0355 111.497 27.9602L118.851 29.0779C116.913 34.2925 112.01 37.219 106.141 37.219C97.4784 37.219 92.1777 31.4706 92.1777 23.5443C92.1777 15.618 96.6771 9.39026 105.742 9.39026C114.918 9.39026 119.022 15.7222 119.022 23.597V24.5016H100.611ZM111.497 19.871C111.098 17.2104 109.273 14.6017 106.195 14.6017C103.003 14.6017 101.235 17.1565 100.837 19.871H111.497Z" fill="white"/>
<path d="M130.701 12.6361H130.815C132.468 10.2948 135.262 9.39026 138.11 9.39026C145.636 9.39026 147.799 14.3402 147.799 20.4043V36.3675H139.818V22.5328C139.818 19.3936 139.989 15.3498 135.487 15.3498C130.756 15.3498 130.698 20.2997 130.698 23.4373V36.3675H122.722V10.2413H130.701V12.6361Z" fill="white"/>
<path d="M172.022 33.9195H171.908C170.255 36.048 167.29 37.2184 164.385 37.2184C156.177 37.2184 151.504 30.2482 151.504 23.1714C151.504 16.2542 156.235 9.39014 164.271 9.39014C167.178 9.39014 170.141 10.5606 171.908 12.6359H172.022V0.831909H180.001V36.3674H172.022V33.9195ZM172.82 23.2775C172.82 19.7647 170.312 15.9879 166.208 15.9879C162.105 15.9879 159.597 19.7659 159.597 23.2775C159.597 26.7892 162.105 30.6226 166.208 30.6226C170.312 30.6226 172.82 26.7896 172.82 23.2775Z" fill="white"/>
<path d="M4.3558 24.1763C2.0302 22.2726 0.555913 19.9557 0.135603 17.1267C-0.362954 13.7655 0.504175 10.7205 2.88707 8.13252C5.63213 5.15137 9.17248 3.91269 13.3474 4.19052C13.8656 4.22485 14.4937 4.41327 14.873 4.20929C15.2394 4.01209 15.3369 3.39414 15.575 2.9718C16.7338 0.919164 16.1557 1.16107 18.7434 1.15309C20.6031 1.1475 22.4626 1.1475 24.322 1.15309C25.1943 1.15309 25.3764 1.42374 24.9856 2.16903C23.9805 4.08514 22.966 5.99579 21.9421 7.90099C21.7424 8.27184 21.6963 8.53969 21.9849 8.9325C25.3465 13.5168 24.9587 19.1537 20.9159 23.2359C18.71 25.4617 15.8876 26.5986 12.6333 26.7643C12.4533 26.7735 12.2314 26.7036 12.0993 26.7787C11.8034 26.9475 11.552 27.1842 11.2826 27.3934C11.5537 27.6242 11.8051 28.0253 12.0997 28.0553C13.2234 28.1694 14.3684 28.0996 15.4921 28.215C19.6007 28.6353 22.9747 32.1246 23.1577 35.8854C23.3715 40.2585 19.9197 43.8819 15.8692 44.428C14.9067 44.5578 13.919 44.5554 12.9429 44.5606C9.89551 44.5761 6.84773 44.5674 3.80038 44.5658C2.75367 44.5658 2.61812 44.347 3.09316 43.4436C4.04367 41.6361 5.0053 39.8334 5.93956 38.0182C6.29017 37.3372 6.77975 37.0251 7.63106 37.045C9.77323 37.0953 11.9171 37.0586 14.0606 37.0678C14.6096 37.0702 15.0867 36.9668 15.082 36.3572C15.0773 35.7305 14.5976 35.5956 14.0131 35.5988C12.257 35.6091 10.5005 35.6159 8.74447 35.5988C3.81577 35.5549 0.794502 31.0783 2.88664 26.9152C3.3433 26.0074 3.84827 25.1204 4.3558 24.1763ZM16.095 15.4313C16.0924 13.4158 14.2542 11.7061 12.1022 11.7188C9.95024 11.7316 8.1061 13.4513 8.10909 15.4421C8.11208 17.4672 9.90492 19.1653 12.0697 19.1893C14.2423 19.2116 16.098 17.4799 16.095 15.4313Z" fill="white"/>
<path d="M44.851 24.1763C42.5254 22.2726 41.0502 19.9557 40.6308 17.1267C40.1322 13.7663 40.9989 10.7205 43.3822 8.13252C46.1273 5.15137 49.6676 3.91269 53.8425 4.19052C54.3607 4.22485 54.9888 4.41327 55.3681 4.20929C55.7345 4.01209 55.832 3.39414 56.0702 2.9718C57.2289 0.919164 56.6504 1.16107 59.2386 1.15309C61.098 1.1475 62.9575 1.1475 64.8172 1.15309C65.6894 1.15309 65.8716 1.42374 65.4808 2.16903C64.4757 4.08514 63.4612 5.99579 62.4373 7.90099C62.2376 8.27184 62.1914 8.53969 62.48 8.9325C65.8417 13.5168 65.4538 19.1537 61.4111 23.2359C59.2073 25.4597 56.3849 26.5986 53.1306 26.7643C52.9506 26.7735 52.7287 26.7036 52.5965 26.7787C52.3007 26.9475 52.0492 27.1842 51.7799 27.3934C52.051 27.6242 52.3024 28.0253 52.597 28.0553C53.7206 28.1694 54.8657 28.0996 55.9894 28.215C60.098 28.6353 63.472 32.1246 63.655 35.8854C63.8688 40.2585 60.417 43.8819 56.3665 44.428C55.404 44.5578 54.4163 44.5554 53.4402 44.5606C50.3924 44.5761 47.345 44.5674 44.2977 44.5658C43.251 44.5658 43.1154 44.347 43.59 43.4436C44.541 41.6361 45.5026 39.8334 46.4368 38.0182C46.7875 37.3372 47.277 37.0251 48.1283 37.045C50.2705 37.0953 52.4144 37.0586 54.5574 37.0678C55.1069 37.0702 55.5836 36.9668 55.5793 36.3572C55.5746 35.7305 55.0949 35.5956 54.5104 35.5988C52.7543 35.6091 50.9978 35.6159 49.2418 35.5988C44.3131 35.5549 41.2918 31.0783 43.3839 26.9152C43.8385 26.0074 44.3434 25.1204 44.851 24.1763ZM56.5901 15.4313C56.5876 13.4158 54.7515 11.7061 52.5974 11.7188C50.4433 11.7316 48.6012 13.4513 48.6042 15.4421C48.6072 17.4672 50.4001 19.1653 52.5649 19.1893C54.737 19.2116 56.5931 17.4799 56.5901 15.4313Z" fill="white"/>
</svg>
