<svg width="180" height="45" viewBox="0 0 180 45" fill="none" xmlns="http://www.w3.org/2000/svg">
<path d="M36.0757 36.3673H28.0967V10.2411H36.0757V36.3673Z" fill="#0E0707"/>
<path d="M81.2329 12.955H81.3471C82.9428 10.6673 85.3364 9.39026 88.3004 9.39026C89.4403 9.39026 90.5802 9.65612 91.606 10.029L90.6371 16.9461C89.6682 16.3074 88.5283 15.9881 87.3315 15.9881C81.8029 15.9881 81.2329 20.564 81.2329 24.6082V36.3675H73.2539V10.2413H81.2329V12.955Z" fill="#0E0707"/>
<path d="M100.61 24.5016C100.61 27.8005 101.978 31.5253 106.138 31.5253C108.76 31.5253 110.414 30.0355 111.496 27.9602L118.85 29.0779C116.912 34.2925 112.009 37.219 106.14 37.219C97.4774 37.219 92.1768 31.4706 92.1768 23.5443C92.1768 15.618 96.6762 9.39026 105.741 9.39026C114.917 9.39026 119.021 15.7222 119.021 23.597V24.5016H100.61ZM111.496 19.871C111.097 17.2104 109.272 14.6017 106.194 14.6017C103.002 14.6017 101.234 17.1565 100.836 19.871H111.496Z" fill="#0E0707"/>
<path d="M130.701 12.6361H130.815C132.468 10.2948 135.262 9.39026 138.11 9.39026C145.636 9.39026 147.799 14.3402 147.799 20.4043V36.3675H139.818V22.5328C139.818 19.3936 139.989 15.3498 135.487 15.3498C130.756 15.3498 130.698 20.2997 130.698 23.4373V36.3675H122.722V10.2413H130.701V12.6361Z" fill="#0E0707"/>
<path d="M172.021 33.9195H171.907C170.254 36.048 167.289 37.2184 164.384 37.2184C156.176 37.2184 151.503 30.2482 151.503 23.1714C151.503 16.2542 156.234 9.39014 164.27 9.39014C167.177 9.39014 170.14 10.5606 171.907 12.6359H172.021V0.831909H180V36.3674H172.021V33.9195ZM172.819 23.2775C172.819 19.7647 170.311 15.9879 166.207 15.9879C162.104 15.9879 159.596 19.7659 159.596 23.2775C159.596 26.7892 162.104 30.6226 166.207 30.6226C170.311 30.6226 172.819 26.7896 172.819 23.2775Z" fill="#0E0707"/>
<path d="M4.35579 24.1763C2.0302 22.2726 0.555911 19.9557 0.135603 17.1267C-0.362953 13.7655 0.504174 10.7205 2.88706 8.13252C5.63211 5.15137 9.17245 3.91269 13.3473 4.19052C13.8655 4.22485 14.4937 4.41327 14.8729 4.20929C15.2393 4.01209 15.3368 3.39414 15.575 2.9718C16.7337 0.919164 16.1556 1.16107 18.7433 1.15309C20.603 1.1475 22.4626 1.1475 24.3219 1.15309C25.1942 1.15309 25.3763 1.42374 24.9855 2.16903C23.9805 4.08514 22.966 5.99579 21.942 7.90099C21.7424 8.27184 21.6962 8.53969 21.9848 8.9325C25.3464 13.5168 24.9586 19.1537 20.9159 23.2359C18.71 25.4617 15.8876 26.5986 12.6333 26.7643C12.4533 26.7735 12.2313 26.7036 12.0992 26.7787C11.8033 26.9475 11.5519 27.1842 11.2825 27.3934C11.5536 27.6242 11.805 28.0253 12.0996 28.0553C13.2233 28.1694 14.3684 28.0996 15.492 28.215C19.6006 28.6353 22.9746 32.1246 23.1576 35.8854C23.3714 40.2585 19.9196 43.8819 15.8692 44.428C14.9067 44.5578 13.919 44.5554 12.9428 44.5606C9.89548 44.5761 6.84771 44.5674 3.80037 44.5658C2.75366 44.5658 2.61812 44.347 3.09315 43.4436C4.04366 41.6361 5.00528 39.8334 5.93954 38.0182C6.29015 37.3372 6.77973 37.0251 7.63103 37.045C9.7732 37.0953 11.9171 37.0586 14.0605 37.0678C14.6095 37.0702 15.0867 36.9668 15.082 36.3572C15.0773 35.7305 14.5976 35.5956 14.0131 35.5988C12.257 35.6091 10.5005 35.6159 8.74445 35.5988C3.81576 35.5549 0.794499 31.0783 2.88664 26.9152C3.34329 26.0074 3.84826 25.1204 4.35579 24.1763ZM16.0949 15.4313C16.0924 13.4158 14.2542 11.7061 12.1022 11.7188C9.95021 11.7316 8.10607 13.4513 8.10907 15.4421C8.11206 17.4672 9.90489 19.1653 12.0697 19.1893C14.2422 19.2116 16.0979 17.4799 16.0949 15.4313Z" fill="#0E0707"/>
<path d="M44.8509 24.1763C42.5253 22.2726 41.0502 19.9557 40.6308 17.1267C40.1322 13.7663 40.9989 10.7205 43.3822 8.13252C46.1273 5.15137 49.6676 3.91269 53.8425 4.19052C54.3607 4.22485 54.9888 4.41327 55.3681 4.20929C55.7345 4.01209 55.832 3.39414 56.0701 2.9718C57.2289 0.919164 56.6504 1.16107 59.2385 1.15309C61.0979 1.1475 62.9574 1.1475 64.8171 1.15309C65.6894 1.15309 65.8715 1.42374 65.4807 2.16903C64.4756 4.08514 63.4611 5.99579 62.4372 7.90099C62.2375 8.27184 62.1913 8.53969 62.48 8.9325C65.8416 13.5168 65.4538 19.1537 61.411 23.2359C59.2073 25.4597 56.3848 26.5986 53.1306 26.7643C52.9505 26.7735 52.7286 26.7036 52.5965 26.7787C52.3006 26.9475 52.0492 27.1842 51.7798 27.3934C52.0509 27.6242 52.3023 28.0253 52.5969 28.0553C53.7206 28.1694 54.8657 28.0996 55.9893 28.215C60.0979 28.6353 63.4719 32.1246 63.6549 35.8854C63.8687 40.2585 60.4169 43.8819 56.3665 44.428C55.404 44.5578 54.4163 44.5554 53.4401 44.5606C50.3923 44.5761 47.345 44.5674 44.2977 44.5658C43.2509 44.5658 43.1154 44.347 43.59 43.4436C44.541 41.6361 45.5026 39.8334 46.4368 38.0182C46.7874 37.3372 47.277 37.0251 48.1283 37.045C50.2705 37.0953 52.4144 37.0586 54.5574 37.0678C55.1068 37.0702 55.5836 36.9668 55.5793 36.3572C55.5746 35.7305 55.0948 35.5956 54.5103 35.5988C52.7543 35.6091 50.9978 35.6159 49.2417 35.5988C44.3131 35.5549 41.2918 31.0783 43.3839 26.9152C43.8384 26.0074 44.3434 25.1204 44.8509 24.1763ZM56.5901 15.4313C56.5875 13.4158 54.7515 11.7061 52.5974 11.7188C50.4432 11.7316 48.6012 13.4513 48.6042 15.4421C48.6072 17.4672 50.4 19.1653 52.5649 19.1893C54.737 19.2116 56.5931 17.4799 56.5901 15.4313Z" fill="#0E0707"/>
</svg>
