<svg width="247" height="21" viewBox="0 0 247 21" fill="none" xmlns="http://www.w3.org/2000/svg">
<path d="M2.59337 20.9018V11.0941H0V7.56282H2.59337V4.54667C2.59337 2.17655 4.12529 0 7.65514 0C9.08432 0 10.1411 0.137011 10.1411 0.137011L10.0579 3.43461C10.0579 3.43461 8.98009 3.42411 7.80396 3.42411C6.53104 3.42411 6.3271 4.01072 6.3271 4.98435V7.56282H10.1591L9.99232 11.0941H6.3271V20.9018H2.59337Z" fill="white"/>
<path d="M70.4047 3.50977C69.6361 3.84135 68.7996 4.07998 67.938 4.17292C68.8326 3.64149 69.5024 2.80191 69.822 1.8117C68.9826 2.31105 68.063 2.6612 67.1041 2.84662C66.7033 2.41815 66.2185 2.07681 65.68 1.84387C65.1416 1.61094 64.5609 1.49139 63.9742 1.49269C61.6004 1.49269 59.6913 3.41683 59.6913 5.77805C59.6913 6.10962 59.7315 6.4412 59.7968 6.76021C56.2425 6.57433 53.0724 4.87626 50.9649 2.27641C50.5809 2.93231 50.3796 3.67914 50.3821 4.43919C50.3821 5.92625 51.1382 7.23748 52.2912 8.00865C51.6117 7.98189 50.9482 7.79513 50.3545 7.46356V7.51631C50.3545 9.5987 51.8265 11.3244 53.7883 11.7213C53.4199 11.817 53.041 11.8659 52.6604 11.867C52.3816 11.867 52.1179 11.8393 51.8516 11.8017C52.3942 13.4997 53.9742 14.7331 55.8556 14.7733C54.3836 15.9263 52.5399 16.6045 50.5378 16.6045C50.1786 16.6045 49.8471 16.5919 49.5029 16.5517C51.402 17.77 53.6552 18.4734 56.0817 18.4734C63.9591 18.4734 68.2696 11.9474 68.2696 6.28295C68.2696 6.09706 68.2696 5.91118 68.257 5.7253C69.091 5.1149 69.822 4.3588 70.4047 3.50977Z" fill="white"/>
<path d="M120.197 6.96566C118.278 6.96566 116.712 8.53171 116.712 10.4507C116.712 12.3697 118.278 13.9358 120.197 13.9358C122.116 13.9358 123.682 12.3697 123.682 10.4507C123.682 8.53171 122.116 6.96566 120.197 6.96566ZM130.65 10.4507C130.65 9.00754 130.663 7.57744 130.582 6.13688C130.501 4.46363 130.119 2.97863 128.895 1.75507C127.669 0.528895 126.187 0.149801 124.514 0.0687531C123.07 -0.0122946 121.64 0.000777651 120.2 0.000777651C118.757 0.000777651 117.326 -0.0122946 115.886 0.0687531C114.213 0.149801 112.728 0.53151 111.504 1.75507C110.278 2.98124 109.899 4.46363 109.818 6.13688C109.737 7.58005 109.75 9.01015 109.75 10.4507C109.75 11.8913 109.737 13.324 109.818 14.7645C109.899 16.4378 110.281 17.9228 111.504 19.1463C112.73 20.3725 114.213 20.7516 115.886 20.8327C117.329 20.9137 118.759 20.9006 120.2 20.9006C121.643 20.9006 123.073 20.9137 124.514 20.8327C126.187 20.7516 127.672 20.3699 128.895 19.1463C130.122 17.9202 130.501 16.4378 130.582 14.7645C130.665 13.324 130.65 11.8939 130.65 10.4507ZM120.197 15.8129C117.23 15.8129 114.835 13.4181 114.835 10.4507C114.835 7.48331 117.23 5.08848 120.197 5.08848C123.165 5.08848 125.559 7.48331 125.559 10.4507C125.559 13.4181 123.165 15.8129 120.197 15.8129ZM125.779 6.12119C125.086 6.12119 124.527 5.5617 124.527 4.86887C124.527 4.17604 125.086 3.61655 125.779 3.61655C126.472 3.61655 127.031 4.17604 127.031 4.86887C127.031 5.03339 126.999 5.19633 126.936 5.34836C126.874 5.50039 126.781 5.63853 126.665 5.75485C126.549 5.87118 126.41 5.96342 126.258 6.02628C126.106 6.08915 125.943 6.1214 125.779 6.12119Z" fill="white"/>
<path d="M169.994 7.49771C169.994 6.59403 170.152 5.7403 170.463 4.94349C170.761 4.16956 171.203 3.45925 171.766 2.85041C172.327 2.24956 172.97 1.72999 173.675 1.30673C174.399 0.869009 175.182 0.538778 176.001 0.326396C176.829 0.108865 177.682 -0.000837904 178.538 4.81839e-06C179.861 4.81839e-06 181.093 0.279934 182.234 0.837471C183.361 1.38484 184.321 2.22486 185.012 3.26972C185.725 4.33253 186.079 5.53471 186.079 6.87512C186.079 7.6789 186 8.46526 185.839 9.2342C185.68 10.0027 185.428 10.7489 185.088 11.4562C184.764 12.1409 184.341 12.7738 183.832 13.3344C183.32 13.8861 182.7 14.3265 182.01 14.6284C181.262 14.9564 180.452 15.1215 179.635 15.1127C179.067 15.1127 178.5 14.9791 177.94 14.7108C177.38 14.4437 176.979 14.0766 176.737 13.6062C176.652 13.9326 176.536 14.4042 176.381 15.021C176.233 15.6366 176.133 16.0338 176.089 16.2139C176.042 16.3927 175.956 16.6912 175.831 17.1048C175.746 17.4106 175.637 17.7093 175.505 17.998L175.105 18.7808C174.932 19.1168 174.739 19.4418 174.527 19.7542C174.316 20.0585 174.056 20.4221 173.746 20.8402L173.573 20.9018L173.458 20.7764C173.334 19.4603 173.27 18.6728 173.27 18.4126C173.27 17.6425 173.362 16.7784 173.543 15.8189C173.72 14.8607 174.002 13.6562 174.379 12.2077C174.757 10.7605 174.973 9.90905 175.031 9.657C174.765 9.11456 174.63 8.40602 174.63 7.53487C174.63 6.83912 174.847 6.1875 175.283 5.57421C175.719 4.96324 176.271 4.65776 176.94 4.65776C177.452 4.65776 177.85 4.82734 178.134 5.16767C178.42 5.50684 178.559 5.93428 178.559 6.45581C178.559 7.0087 178.376 7.809 178.006 8.85554C177.637 9.90324 177.454 10.685 177.454 11.2042C177.454 11.7303 177.642 12.1706 178.018 12.5155C178.389 12.8607 178.881 13.0477 179.388 13.0371C179.848 13.0371 180.274 12.9325 180.67 12.7223C181.06 12.5182 181.397 12.2268 181.656 11.8709C182.22 11.0976 182.621 10.2186 182.837 9.28647C182.949 8.7963 183.035 8.33053 183.088 7.89263C183.145 7.45241 183.169 7.03658 183.169 6.64166C183.169 5.19322 182.71 4.06421 181.795 3.25578C180.877 2.44736 179.68 2.04547 178.209 2.04547C176.535 2.04547 175.135 2.58674 174.014 3.67277C172.892 4.75532 172.328 6.13174 172.328 7.80087C172.328 8.16907 172.383 8.5245 172.489 8.86832C172.593 9.21097 172.705 9.48393 172.827 9.68604C172.948 9.88466 173.062 10.0786 173.165 10.2575C173.27 10.4364 173.324 10.5642 173.324 10.6408C173.324 10.8754 173.263 11.1809 173.138 11.5584C173.01 11.9359 172.857 12.1241 172.674 12.1241C172.656 12.1241 172.584 12.1113 172.459 12.0846C172.025 11.9549 171.632 11.7124 171.322 11.3819C170.992 11.0393 170.733 10.6362 170.556 10.1948C170.381 9.75498 170.244 9.30063 170.148 8.83695C170.043 8.39822 169.992 7.94863 169.994 7.49771Z" fill="white"/>
<path d="M230.169 19.9795V6.49938H225.688V19.9795H230.169ZM227.929 4.65778C229.491 4.65778 230.464 3.62267 230.464 2.32911C230.435 1.00639 229.492 0 227.959 0C226.426 0 225.424 1.00641 225.424 2.32911C225.424 3.62273 226.396 4.65778 227.9 4.65778H227.929H227.929ZM232.649 19.9795H237.129V12.4516C237.129 12.0487 237.158 11.6462 237.277 11.3582C237.601 10.5532 238.338 9.71953 239.575 9.71953C241.197 9.71953 241.845 10.9557 241.845 12.7678V19.9794H246.326V12.25C246.326 8.10947 244.115 6.1829 241.167 6.1829C238.75 6.1829 237.689 7.53396 237.099 8.45415H237.129V6.4991H232.649C232.708 7.764 232.649 19.9793 232.649 19.9793L232.649 19.9795Z" fill="white"/>
</svg>
