<svg width="337" height="197" viewBox="0 0 337 197" fill="none" xmlns="http://www.w3.org/2000/svg">
<path d="M12 149.668C9.81276 149.671 7.71584 150.541 6.16923 152.087C4.62261 153.634 3.75259 155.731 3.75001 157.918C3.74739 159.706 4.33124 161.444 5.41201 162.868C5.41201 162.868 5.63701 163.164 5.67376 163.207L12 170.668L18.3293 163.203C18.3623 163.164 18.588 162.868 18.588 162.868L18.5888 162.866C19.669 161.443 20.2526 159.705 20.25 157.918C20.2474 155.731 19.3774 153.634 17.8308 152.087C16.2842 150.541 14.1873 149.671 12 149.668ZM12 160.918C11.4067 160.918 10.8266 160.742 10.3333 160.412C9.83995 160.083 9.45543 159.614 9.22837 159.066C9.00131 158.518 8.9419 157.915 9.05765 157.333C9.17341 156.751 9.45913 156.216 9.87869 155.797C10.2982 155.377 10.8328 155.091 11.4147 154.976C11.9967 154.86 12.5999 154.919 13.1481 155.146C13.6962 155.374 14.1648 155.758 14.4944 156.251C14.8241 156.745 15 157.325 15 157.918C14.999 158.713 14.6826 159.476 14.1202 160.038C13.5578 160.601 12.7954 160.917 12 160.918Z" fill="white"/>
<path d="M20.0002 11.1671H22.0002C22.0002 6.03709 18.1272 2.16809 12.9902 2.16809V4.16809C17.0522 4.16809 20.0002 7.11109 20.0002 11.1671Z" fill="white"/>
<path d="M13.0003 8.16809C15.1033 8.16809 16.0003 9.06509 16.0003 11.1681H18.0003C18.0003 7.94309 16.2253 6.16809 13.0003 6.16809V8.16809ZM16.4223 13.6111C16.2301 13.4364 15.9776 13.3433 15.7181 13.3513C15.4585 13.3593 15.2123 13.4679 15.0313 13.6541L12.6383 16.1151C12.0623 16.0051 10.9043 15.6441 9.71228 14.4551C8.52028 13.2621 8.15928 12.1011 8.05228 11.5291L10.5113 9.13509C10.6977 8.95421 10.8064 8.70791 10.8144 8.44829C10.8225 8.18868 10.7292 7.93613 10.5543 7.74409L6.85928 3.68109C6.68432 3.48844 6.44116 3.37159 6.18143 3.35535C5.92171 3.3391 5.66588 3.42474 5.46828 3.59409L3.29828 5.45509C3.12539 5.6286 3.0222 5.85954 3.00828 6.10409C2.99328 6.35409 2.70728 12.2761 7.29928 16.8701C11.3053 20.8751 16.3233 21.1681 17.7053 21.1681C17.9073 21.1681 18.0313 21.1621 18.0643 21.1601C18.3088 21.1464 18.5396 21.0427 18.7123 20.8691L20.5723 18.6981C20.7417 18.5006 20.8276 18.2449 20.8115 17.9851C20.7954 17.7254 20.6788 17.4822 20.4863 17.3071L16.4223 13.6111Z" fill="white"/>
<path d="M53.784 8.23209V11.7041H50.392V12.9361H53.784V16.3921H55.144V12.9361H58.552V11.7041H55.144V8.23209H53.784ZM60.9139 12.2641C60.9139 15.6241 61.7459 18.1681 64.9459 18.1681C68.1299 18.1681 68.9619 15.6241 68.9619 12.2641C68.9619 8.95209 68.1299 6.42409 64.9459 6.42409C61.7459 6.42409 60.9139 8.95209 60.9139 12.2641ZM67.5219 12.2641C67.5219 14.7601 67.2179 16.8401 64.9459 16.8401C62.6579 16.8401 62.3539 14.7601 62.3539 12.2641C62.3539 9.86409 62.6579 7.75209 64.9459 7.75209C67.2179 7.75209 67.5219 9.86409 67.5219 12.2641ZM70.9608 12.2641C70.9608 15.6241 71.7928 18.1681 74.9928 18.1681C78.1768 18.1681 79.0087 15.6241 79.0087 12.2641C79.0087 8.95209 78.1768 6.42409 74.9928 6.42409C71.7928 6.42409 70.9608 8.95209 70.9608 12.2641ZM77.5688 12.2641C77.5688 14.7601 77.2648 16.8401 74.9928 16.8401C72.7048 16.8401 72.4008 14.7601 72.4008 12.2641C72.4008 9.86409 72.7048 7.75209 74.9928 7.75209C77.2648 7.75209 77.5688 9.86409 77.5688 12.2641ZM81.0076 12.2641C81.0076 15.6241 81.8396 18.1681 85.0396 18.1681C88.2236 18.1681 89.0556 15.6241 89.0556 12.2641C89.0556 8.95209 88.2236 6.42409 85.0396 6.42409C81.8396 6.42409 81.0076 8.95209 81.0076 12.2641ZM87.6156 12.2641C87.6156 14.7601 87.3116 16.8401 85.0396 16.8401C82.7516 16.8401 82.4476 14.7601 82.4476 12.2641C82.4476 9.86409 82.7516 7.75209 85.0396 7.75209C87.3116 7.75209 87.6156 9.86409 87.6156 12.2641ZM91.0545 12.2641C91.0545 15.6241 91.8865 18.1681 95.0865 18.1681C98.2705 18.1681 99.1025 15.6241 99.1025 12.2641C99.1025 8.95209 98.2705 6.42409 95.0865 6.42409C91.8865 6.42409 91.0545 8.95209 91.0545 12.2641ZM97.6625 12.2641C97.6625 14.7601 97.3585 16.8401 95.0865 16.8401C92.7985 16.8401 92.4945 14.7601 92.4945 12.2641C92.4945 9.86409 92.7985 7.75209 95.0865 7.75209C97.3585 7.75209 97.6625 9.86409 97.6625 12.2641ZM105.367 12.2641C105.367 15.6241 106.199 18.1681 109.399 18.1681C112.583 18.1681 113.415 15.6241 113.415 12.2641C113.415 8.95209 112.583 6.42409 109.399 6.42409C106.199 6.42409 105.367 8.95209 105.367 12.2641ZM111.975 12.2641C111.975 14.7601 111.671 16.8401 109.399 16.8401C107.111 16.8401 106.807 14.7601 106.807 12.2641C106.807 9.86409 107.111 7.75209 109.399 7.75209C111.671 7.75209 111.975 9.86409 111.975 12.2641ZM115.414 12.2641C115.414 15.6241 116.246 18.1681 119.446 18.1681C122.63 18.1681 123.462 15.6241 123.462 12.2641C123.462 8.95209 122.63 6.42409 119.446 6.42409C116.246 6.42409 115.414 8.95209 115.414 12.2641ZM122.022 12.2641C122.022 14.7601 121.718 16.8401 119.446 16.8401C117.158 16.8401 116.854 14.7601 116.854 12.2641C116.854 9.86409 117.158 7.75209 119.446 7.75209C121.718 7.75209 122.022 9.86409 122.022 12.2641ZM125.461 12.2641C125.461 15.6241 126.293 18.1681 129.493 18.1681C132.677 18.1681 133.509 15.6241 133.509 12.2641C133.509 8.95209 132.677 6.42409 129.493 6.42409C126.293 6.42409 125.461 8.95209 125.461 12.2641ZM132.069 12.2641C132.069 14.7601 131.765 16.8401 129.493 16.8401C127.205 16.8401 126.901 14.7601 126.901 12.2641C126.901 9.86409 127.205 7.75209 129.493 7.75209C131.765 7.75209 132.069 9.86409 132.069 12.2641ZM135.508 12.2641C135.508 15.6241 136.34 18.1681 139.54 18.1681C142.724 18.1681 143.556 15.6241 143.556 12.2641C143.556 8.95209 142.724 6.42409 139.54 6.42409C136.34 6.42409 135.508 8.95209 135.508 12.2641ZM142.116 12.2641C142.116 14.7601 141.812 16.8401 139.54 16.8401C137.252 16.8401 136.948 14.7601 136.948 12.2641C136.948 9.86409 137.252 7.75209 139.54 7.75209C141.812 7.75209 142.116 9.86409 142.116 12.2641ZM149.82 12.2641C149.82 15.6241 150.652 18.1681 153.852 18.1681C157.036 18.1681 157.868 15.6241 157.868 12.2641C157.868 8.95209 157.036 6.42409 153.852 6.42409C150.652 6.42409 149.82 8.95209 149.82 12.2641ZM156.428 12.2641C156.428 14.7601 156.124 16.8401 153.852 16.8401C151.564 16.8401 151.26 14.7601 151.26 12.2641C151.26 9.86409 151.564 7.75209 153.852 7.75209C156.124 7.75209 156.428 9.86409 156.428 12.2641ZM159.867 12.2641C159.867 15.6241 160.699 18.1681 163.899 18.1681C167.083 18.1681 167.915 15.6241 167.915 12.2641C167.915 8.95209 167.083 6.42409 163.899 6.42409C160.699 6.42409 159.867 8.95209 159.867 12.2641ZM166.475 12.2641C166.475 14.7601 166.171 16.8401 163.899 16.8401C161.611 16.8401 161.307 14.7601 161.307 12.2641C161.307 9.86409 161.611 7.75209 163.899 7.75209C166.171 7.75209 166.475 9.86409 166.475 12.2641ZM169.914 12.2641C169.914 15.6241 170.746 18.1681 173.946 18.1681C177.13 18.1681 177.962 15.6241 177.962 12.2641C177.962 8.95209 177.13 6.42409 173.946 6.42409C170.746 6.42409 169.914 8.95209 169.914 12.2641ZM176.522 12.2641C176.522 14.7601 176.218 16.8401 173.946 16.8401C171.658 16.8401 171.354 14.7601 171.354 12.2641C171.354 9.86409 171.658 7.75209 173.946 7.75209C176.218 7.75209 176.522 9.86409 176.522 12.2641Z" fill="white"/>
<path d="M22 78.1681H2V94.1681H22V78.1681ZM20 82.1681L12 87.1681L4 82.1681V80.1681L12 85.1681L20 80.1681V82.1681Z" fill="white"/>
<path d="M56.536 89.7841C56.472 86.6481 51.384 87.7841 51.384 85.7041C51.384 85.0001 52.024 84.4881 53.096 84.4881C54.264 84.4881 54.936 85.1281 55 86.0081H56.456C56.36 84.2961 55.08 83.2561 53.144 83.2561C51.192 83.2561 49.928 84.3601 49.928 85.7041C49.928 88.9681 55.112 87.8321 55.112 89.7841C55.112 90.5041 54.472 91.0801 53.32 91.0801C52.088 91.0801 51.336 90.4401 51.256 89.5921H49.752C49.848 91.1921 51.288 92.3121 53.336 92.3121C55.272 92.3121 56.536 91.2241 56.536 89.7841ZM66.3674 83.4001H64.9114V88.2161C64.9114 90.1041 63.9034 91.0321 62.3994 91.0321C60.9274 91.0321 59.9514 90.1201 59.9514 88.3441V83.4001H58.5114V88.5361C58.5114 91.0481 60.0954 92.2961 62.1114 92.2961C63.2794 92.2961 64.3514 91.7841 64.9114 90.8721V92.1681H66.3674V83.4001ZM70.2818 85.0161V83.4001H68.8258V96.3281H70.2818V90.5521C70.8258 91.4481 71.9618 92.3121 73.5618 92.3121C75.9138 92.3121 77.7218 90.4721 77.7218 87.7521C77.7218 85.0161 75.9138 83.2561 73.5618 83.2561C71.9618 83.2561 70.8098 84.0881 70.2818 85.0161ZM76.2338 87.7521C76.2338 89.8161 74.8738 91.0321 73.2578 91.0321C71.6738 91.0321 70.2818 89.8321 70.2818 87.7681C70.2818 85.7361 71.6738 84.5201 73.2578 84.5201C74.8738 84.5201 76.2338 85.6881 76.2338 87.7521ZM81.0943 85.0161V83.4001H79.6383V96.3281H81.0943V90.5521C81.6383 91.4481 82.7743 92.3121 84.3743 92.3121C86.7263 92.3121 88.5343 90.4721 88.5343 87.7521C88.5343 85.0161 86.7263 83.2561 84.3743 83.2561C82.7743 83.2561 81.6223 84.0881 81.0943 85.0161ZM87.0463 87.7521C87.0463 89.8161 85.6863 91.0321 84.0703 91.0321C82.4863 91.0321 81.0943 89.8321 81.0943 87.7681C81.0943 85.7361 82.4863 84.5201 84.0703 84.5201C85.6863 84.5201 87.0463 85.6881 87.0463 87.7521ZM98.7708 87.7681C98.7708 85.0001 96.8348 83.2561 94.3388 83.2561C91.8588 83.2561 89.9068 85.0001 89.9068 87.7681C89.9068 90.5521 91.7948 92.3121 94.2748 92.3121C96.7708 92.3121 98.7708 90.5521 98.7708 87.7681ZM91.3948 87.7681C91.3948 85.5601 92.7868 84.5201 94.3228 84.5201C95.8268 84.5201 97.2828 85.5601 97.2828 87.7681C97.2828 89.9921 95.7948 91.0321 94.2748 91.0321C92.7548 91.0321 91.3948 89.9921 91.3948 87.7681ZM102.141 87.4001C102.141 85.3681 103.197 84.7441 104.589 84.7441H104.973V83.2401C103.581 83.2401 102.637 83.8481 102.141 84.8241V83.4001H100.685V92.1681H102.141V87.4001ZM106.974 89.7681C106.974 91.5281 107.854 92.1681 109.406 92.1681H110.718V90.9361H109.646C108.75 90.9361 108.43 90.6321 108.43 89.7681V84.6001H110.718V83.4001H108.43V81.1921H106.974V83.4001H105.838V84.6001H106.974V89.7681ZM122.818 92.2801C125.042 92.2801 126.29 89.7201 126.29 87.2561C126.29 84.0881 124.098 81.9121 120.482 81.9121C115.778 81.9121 112.402 85.4801 112.402 90.0401C112.402 93.2881 114.69 95.3521 118.146 95.3521C119.25 95.3521 120.322 95.1601 121.282 94.7601L121.09 93.7681C120.274 94.1521 119.314 94.3121 118.434 94.3121C115.426 94.3121 113.602 92.7601 113.618 89.9121C113.618 85.9921 116.434 82.9361 120.306 82.9361C123.362 82.9361 125.106 84.5521 125.106 87.3361C125.106 89.0161 124.418 91.2881 123.042 91.2881C122.226 91.2881 122.098 90.6801 122.242 89.7681L123.042 85.1441H121.778L121.602 86.1361C121.25 85.3681 120.562 84.9841 119.554 84.9841C117.218 84.9841 115.618 87.1441 115.618 89.5281C115.618 91.1921 116.578 92.2801 118.226 92.2801C119.346 92.2801 120.434 91.7201 121.09 90.7921C121.17 91.6881 121.73 92.2801 122.818 92.2801ZM121.282 88.2161C121.186 89.8641 120.066 91.1441 118.658 91.1441C117.538 91.1441 116.978 90.3921 116.978 89.3041C116.978 87.7201 117.954 86.1041 119.554 86.1041C120.802 86.1041 121.378 87.0481 121.282 88.2161ZM128.141 87.7521C128.141 90.4721 129.949 92.3121 132.301 92.3121C133.901 92.3121 135.037 91.4641 135.565 90.5201V92.3601C135.565 94.2321 134.397 95.2241 132.845 95.2241C131.405 95.2241 130.365 94.5041 130.045 93.4481H128.605C128.893 95.3201 130.541 96.4881 132.845 96.4881C135.421 96.4881 137.037 94.7761 137.037 92.3601V83.4001H135.565V85.0001C135.053 84.0561 133.901 83.2561 132.301 83.2561C129.949 83.2561 128.141 85.0161 128.141 87.7521ZM135.565 87.7681C135.565 89.8321 134.189 91.0321 132.589 91.0321C130.989 91.0321 129.629 89.8161 129.629 87.7521C129.629 85.6881 130.989 84.5201 132.589 84.5201C134.189 84.5201 135.565 85.7361 135.565 87.7681ZM139.498 92.1681H140.954V83.4001H139.498V92.1681ZM140.25 81.9761C140.778 81.9761 141.21 81.5441 141.21 80.9841C141.21 80.4241 140.778 79.9921 140.25 79.9921C139.69 79.9921 139.258 80.4241 139.258 80.9841C139.258 81.5441 139.69 81.9761 140.25 81.9761ZM142.891 87.7521C142.891 90.4721 144.699 92.3121 147.051 92.3121C148.651 92.3121 149.787 91.4641 150.315 90.5201V92.3601C150.315 94.2321 149.147 95.2241 147.595 95.2241C146.155 95.2241 145.115 94.5041 144.795 93.4481H143.355C143.643 95.3201 145.291 96.4881 147.595 96.4881C150.171 96.4881 151.787 94.7761 151.787 92.3601V83.4001H150.315V85.0001C149.803 84.0561 148.651 83.2561 147.051 83.2561C144.699 83.2561 142.891 85.0161 142.891 87.7521ZM150.315 87.7681C150.315 89.8321 148.939 91.0321 147.339 91.0321C145.739 91.0321 144.379 89.8161 144.379 87.7521C144.379 85.6881 145.739 84.5201 147.339 84.5201C148.939 84.5201 150.315 85.7361 150.315 87.7681ZM155.704 87.4001C155.704 85.3681 156.76 84.7441 158.152 84.7441H158.536V83.2401C157.144 83.2401 156.2 83.8481 155.704 84.8241V83.4001H154.248V92.1681H155.704V87.4001ZM163.944 84.4881C165.448 84.4881 166.728 85.4321 166.712 87.1441H161.176C161.336 85.4321 162.52 84.4881 163.944 84.4881ZM168.04 89.4641H166.472C166.152 90.4081 165.32 91.0801 164.008 91.0801C162.52 91.0801 161.272 90.1041 161.16 88.3281H168.168C168.2 88.0241 168.216 87.7681 168.216 87.4481C168.216 85.0481 166.552 83.2561 164.008 83.2561C161.448 83.2561 159.672 85.0001 159.672 87.7681C159.672 90.5521 161.512 92.3121 164.008 92.3121C166.184 92.3121 167.592 91.0641 168.04 89.4641ZM176.554 92.1681H177.994V87.0001C177.994 84.4881 176.442 83.2401 174.41 83.2401C173.226 83.2401 172.17 83.7361 171.594 84.6481V83.4001H170.138V92.1681H171.594V87.3201C171.594 85.4321 172.618 84.5041 174.106 84.5041C175.578 84.5041 176.554 85.4161 176.554 87.2081V92.1681ZM179.829 87.7521C179.829 90.4721 181.637 92.3121 183.989 92.3121C185.589 92.3121 186.725 91.4961 187.253 90.5201V92.1681H188.725V80.3281H187.253V84.9681C186.645 83.9601 185.381 83.2561 184.005 83.2561C181.637 83.2561 179.829 85.0161 179.829 87.7521ZM187.253 87.7681C187.253 89.8321 185.877 91.0321 184.277 91.0321C182.677 91.0321 181.317 89.8161 181.317 87.7521C181.317 85.6881 182.677 84.5201 184.277 84.5201C185.877 84.5201 187.253 85.7361 187.253 87.7681ZM192.609 91.2721C192.609 90.7121 192.177 90.2801 191.649 90.2801C191.089 90.2801 190.657 90.7121 190.657 91.2721C190.657 91.8321 191.089 92.2641 191.649 92.2641C192.177 92.2641 192.609 91.8321 192.609 91.2721ZM194.001 87.7681C194.001 90.5521 195.777 92.3121 198.273 92.3121C200.449 92.3121 201.873 91.0961 202.321 89.3521H200.753C200.433 90.4561 199.569 91.0801 198.273 91.0801C196.673 91.0801 195.489 89.9441 195.489 87.7681C195.489 85.6241 196.673 84.4881 198.273 84.4881C199.569 84.4881 200.449 85.1601 200.753 86.2161H202.321C201.873 84.3761 200.449 83.2561 198.273 83.2561C195.777 83.2561 194.001 85.0161 194.001 87.7681ZM212.583 87.7681C212.583 85.0001 210.647 83.2561 208.151 83.2561C205.671 83.2561 203.719 85.0001 203.719 87.7681C203.719 90.5521 205.607 92.3121 208.087 92.3121C210.583 92.3121 212.583 90.5521 212.583 87.7681ZM205.207 87.7681C205.207 85.5601 206.599 84.5201 208.135 84.5201C209.639 84.5201 211.095 85.5601 211.095 87.7681C211.095 89.9921 209.607 91.0321 208.087 91.0321C206.567 91.0321 205.207 89.9921 205.207 87.7681ZM227.154 92.1681H228.594V87.0001C228.594 84.4881 227.042 83.2401 225.042 83.2401C223.698 83.2401 222.45 83.9281 221.938 85.1921C221.362 83.8801 220.162 83.2401 218.722 83.2401C217.57 83.2401 216.53 83.7361 215.954 84.6641V83.4001H214.498V92.1681H215.954V87.3361C215.954 85.4481 216.962 84.5041 218.434 84.5041C219.874 84.5041 220.834 85.4161 220.834 87.2081V92.1681H222.274V87.3361C222.274 85.4481 223.282 84.5041 224.754 84.5041C226.194 84.5041 227.154 85.4161 227.154 87.2081V92.1681Z" fill="white"/>
<path d="M57.544 155V163.864L51.688 155H50.232V166.168H51.688V157.288L57.544 166.168H59V155H57.544ZM69.802 161.768C69.802 159 67.866 157.256 65.37 157.256C62.89 157.256 60.938 159 60.938 161.768C60.938 164.552 62.826 166.312 65.306 166.312C67.802 166.312 69.802 164.552 69.802 161.768ZM62.426 161.768C62.426 159.56 63.818 158.52 65.354 158.52C66.858 158.52 68.314 159.56 68.314 161.768C68.314 163.992 66.826 165.032 65.306 165.032C63.786 165.032 62.426 163.992 62.426 161.768ZM77.854 160.152C76.558 160.536 75.71 161.592 75.71 163.048C75.71 165.144 77.358 166.488 79.79 166.488C82.238 166.488 83.902 165.144 83.902 163.048C83.902 161.608 83.054 160.552 81.742 160.152C82.878 159.704 83.598 158.744 83.598 157.496C83.598 155.816 82.302 154.424 79.79 154.424C77.278 154.424 75.998 155.8 75.998 157.496C75.998 158.792 76.67 159.688 77.854 160.152ZM79.79 159.672C78.382 159.672 77.406 158.888 77.406 157.688C77.406 156.328 78.366 155.64 79.79 155.64C81.246 155.64 82.19 156.344 82.19 157.672C82.19 158.872 81.214 159.672 79.79 159.672ZM79.79 160.792C81.31 160.792 82.462 161.512 82.462 163C82.462 164.344 81.438 165.272 79.79 165.272C78.142 165.272 77.102 164.36 77.102 163C77.102 161.464 78.302 160.792 79.79 160.792ZM86.9878 166.168H88.4598V154.6H85.4518V155.928H86.9878V166.168ZM90.9288 157.512H92.3528C92.4968 156.392 93.3128 155.624 94.6727 155.624C96.0648 155.624 96.8008 156.392 96.8008 157.496C96.8008 158.84 95.7608 159.432 93.8248 159.448H93.4408V160.664H93.8088C95.8888 160.664 97.0248 161.288 97.0248 162.92C97.0248 164.104 96.2888 165.016 94.7368 165.016C93.2008 165.016 92.3048 164.072 92.1608 162.84H90.7528C90.9288 165.08 92.5608 166.248 94.7528 166.248C97.1688 166.248 98.4167 164.84 98.4167 163.048C98.4167 161.384 97.5048 160.392 96.1608 160.072V159.992C97.3768 159.72 98.2088 158.68 98.2088 157.352C98.2088 155.688 96.9768 154.376 94.7208 154.376C92.5768 154.376 91.0728 155.528 90.9288 157.512ZM110.856 158.296C110.856 159.544 110.136 160.44 108.488 160.44H106.344V156.216H108.488C110.152 156.216 110.856 157.032 110.856 158.296ZM104.888 155.016V166.168H106.344V161.608H108.104L110.76 166.168H112.504L109.704 161.496C111.576 161.08 112.36 159.72 112.36 158.296C112.36 156.472 111.112 155.016 108.488 155.016H104.888ZM118.351 158.488C119.855 158.488 121.135 159.432 121.119 161.144H115.583C115.743 159.432 116.927 158.488 118.351 158.488ZM122.447 163.464H120.879C120.559 164.408 119.727 165.08 118.415 165.08C116.927 165.08 115.679 164.104 115.567 162.328H122.575C122.607 162.024 122.623 161.768 122.623 161.448C122.623 159.048 120.959 157.256 118.415 157.256C115.855 157.256 114.079 159 114.079 161.768C114.079 164.552 115.919 166.312 118.415 166.312C120.591 166.312 121.999 165.064 122.447 163.464ZM123.505 157.4L126.945 166.168H128.641L132.081 157.4H130.529L127.809 164.824L125.073 157.4H123.505ZM134.937 165.272C134.937 164.712 134.505 164.28 133.977 164.28C133.417 164.28 132.985 164.712 132.985 165.272C132.985 165.832 133.417 166.264 133.977 166.264C134.505 166.264 134.937 165.832 134.937 165.272ZM147.138 155H141.138V166.168H147.138V164.968H142.594V161.128H146.658V159.928H142.594V156.2H147.138V155ZM161.997 166.168H163.437V161C163.437 158.488 161.885 157.24 159.885 157.24C158.541 157.24 157.293 157.928 156.781 159.192C156.205 157.88 155.005 157.24 153.565 157.24C152.413 157.24 151.373 157.736 150.797 158.664V157.4H149.341V166.168H150.797V161.336C150.797 159.448 151.805 158.504 153.277 158.504C154.717 158.504 155.677 159.416 155.677 161.208V166.168H157.117V161.336C157.117 159.448 158.125 158.504 159.597 158.504C161.037 158.504 161.997 159.416 161.997 161.208V166.168ZM178.482 166.168H179.922V161C179.922 158.488 178.37 157.24 176.37 157.24C175.026 157.24 173.778 157.928 173.266 159.192C172.69 157.88 171.49 157.24 170.05 157.24C168.898 157.24 167.858 157.736 167.282 158.664V157.4H165.826V166.168H167.282V161.336C167.282 159.448 168.29 158.504 169.762 158.504C171.202 158.504 172.162 159.416 172.162 161.208V166.168H173.602V161.336C173.602 159.448 174.61 158.504 176.082 158.504C177.522 158.504 178.482 159.416 178.482 161.208V166.168ZM181.766 161.752C181.766 164.472 183.574 166.312 185.91 166.312C187.526 166.312 188.662 165.48 189.19 164.536V166.168H190.662V157.4H189.19V159C188.678 158.088 187.558 157.256 185.926 157.256C183.574 157.256 181.766 159.016 181.766 161.752ZM189.19 161.768C189.19 163.832 187.814 165.032 186.214 165.032C184.614 165.032 183.254 163.816 183.254 161.752C183.254 159.688 184.614 158.52 186.214 158.52C187.814 158.52 189.19 159.736 189.19 161.768ZM199.539 166.168H200.979V161C200.979 158.488 199.427 157.24 197.395 157.24C196.211 157.24 195.155 157.736 194.579 158.648V157.4H193.123V166.168H194.579V161.32C194.579 159.432 195.603 158.504 197.091 158.504C198.563 158.504 199.539 159.416 199.539 161.208V166.168ZM211.133 157.4H209.677V162.216C209.677 164.104 208.669 165.032 207.165 165.032C205.693 165.032 204.717 164.12 204.717 162.344V157.4H203.277V162.536C203.277 165.048 204.861 166.296 206.877 166.296C208.045 166.296 209.117 165.784 209.677 164.872V166.168H211.133V157.4ZM217.319 158.488C218.823 158.488 220.103 159.432 220.087 161.144H214.551C214.711 159.432 215.895 158.488 217.319 158.488ZM221.415 163.464H219.847C219.527 164.408 218.695 165.08 217.383 165.08C215.895 165.08 214.647 164.104 214.535 162.328H221.543C221.575 162.024 221.591 161.768 221.591 161.448C221.591 159.048 219.927 157.256 217.383 157.256C214.823 157.256 213.047 159 213.047 161.768C213.047 164.552 214.887 166.312 217.383 166.312C219.559 166.312 220.967 165.064 221.415 163.464ZM223.513 166.168H224.969V154.328H223.513V166.168ZM239.204 166.168H240.74L236.724 155.08H235.044L231.012 166.168H232.548L233.444 163.688H238.308L239.204 166.168ZM237.892 162.504H233.86L235.876 156.872L237.892 162.504ZM241.954 161.752C241.954 164.472 243.762 166.312 246.114 166.312C247.714 166.312 248.85 165.496 249.378 164.52V166.168H250.85V154.328H249.378V158.968C248.77 157.96 247.506 157.256 246.13 157.256C243.762 157.256 241.954 159.016 241.954 161.752ZM249.378 161.768C249.378 163.832 248.002 165.032 246.402 165.032C244.802 165.032 243.442 163.816 243.442 161.752C243.442 159.688 244.802 158.52 246.402 158.52C248.002 158.52 249.378 159.736 249.378 161.768ZM261.086 157.4H259.63V162.216C259.63 164.104 258.622 165.032 257.118 165.032C255.646 165.032 254.67 164.12 254.67 162.344V157.4H253.23V162.536C253.23 165.048 254.814 166.296 256.83 166.296C257.998 166.296 259.07 165.784 259.63 164.872V166.168H261.086V157.4ZM265.001 159.032V154.328H263.545V166.168H265.001V164.552C265.545 165.512 266.681 166.312 268.281 166.312C270.633 166.312 272.441 164.472 272.441 161.752C272.441 159.016 270.649 157.256 268.281 157.256C266.729 157.256 265.561 158.056 265.001 159.032ZM270.953 161.752C270.953 163.816 269.593 165.032 267.977 165.032C266.393 165.032 265.001 163.832 265.001 161.768C265.001 159.736 266.393 158.52 267.977 158.52C269.593 158.52 270.953 159.688 270.953 161.752ZM274.357 166.168H275.813V157.4H274.357V166.168ZM275.109 155.976C275.637 155.976 276.069 155.544 276.069 154.984C276.069 154.424 275.637 153.992 275.109 153.992C274.549 153.992 274.117 154.424 274.117 154.984C274.117 155.544 274.549 155.976 275.109 155.976ZM278.567 166.168H280.023V158.6H281.863V157.4H280.023V156.776C280.023 155.64 280.455 155.16 281.766 155.16V153.944C279.527 153.944 278.567 154.824 278.567 156.776V157.4H277.431V158.6H278.567V166.168ZM283.016 161.752C283.016 164.472 284.824 166.312 287.16 166.312C288.776 166.312 289.912 165.48 290.44 164.536V166.168H291.912V157.4H290.44V159C289.928 158.088 288.808 157.256 287.176 157.256C284.824 157.256 283.016 159.016 283.016 161.752ZM290.44 161.768C290.44 163.832 289.064 165.032 287.464 165.032C285.864 165.032 284.504 163.816 284.504 161.752C284.504 159.688 285.864 158.52 287.464 158.52C289.064 158.52 290.44 159.736 290.44 161.768ZM57.48 187.128C57.48 183 51.464 184.792 51.464 181.912C51.464 180.712 52.408 180.088 53.608 180.12C54.968 180.136 55.672 180.984 55.768 181.736H57.368C57.192 180.04 55.8 178.872 53.672 178.872C51.464 178.872 49.976 180.12 49.976 181.96C49.976 186.104 56.008 184.184 56.008 187.192C56.008 188.248 55.176 189.048 53.768 189.048C52.216 189.048 51.56 188.12 51.464 187.192H49.912C49.944 189.032 51.528 190.28 53.768 190.28C56.184 190.28 57.48 188.712 57.48 187.128ZM59.9426 187.768C59.9426 189.528 60.8226 190.168 62.3746 190.168H63.6866V188.936H62.6146C61.7186 188.936 61.3986 188.632 61.3986 187.768V182.6H63.6866V181.4H61.3986V179.192H59.9426V181.4H58.8066V182.6H59.9426V187.768ZM66.9068 185.4C66.9068 183.368 67.9628 182.744 69.3548 182.744H69.7388V181.24C68.3468 181.24 67.4028 181.848 66.9068 182.824V181.4H65.4508V190.168H66.9068V185.4ZM75.1475 182.488C76.6515 182.488 77.9315 183.432 77.9155 185.144H72.3795C72.5395 183.432 73.7235 182.488 75.1475 182.488ZM79.2435 187.464H77.6755C77.3555 188.408 76.5235 189.08 75.2115 189.08C73.7235 189.08 72.4755 188.104 72.3635 186.328H79.3715C79.4035 186.024 79.4195 185.768 79.4195 185.448C79.4195 183.048 77.7555 181.256 75.2115 181.256C72.6515 181.256 70.8755 183 70.8755 185.768C70.8755 188.552 72.7155 190.312 75.2115 190.312C77.3875 190.312 78.7955 189.064 79.2435 187.464ZM85.0694 182.488C86.5734 182.488 87.8534 183.432 87.8374 185.144H82.3014C82.4614 183.432 83.6454 182.488 85.0694 182.488ZM89.1654 187.464H87.5974C87.2774 188.408 86.4454 189.08 85.1334 189.08C83.6454 189.08 82.3974 188.104 82.2854 186.328H89.2934C89.3254 186.024 89.3414 185.768 89.3414 185.448C89.3414 183.048 87.6774 181.256 85.1334 181.256C82.5734 181.256 80.7974 183 80.7974 185.768C80.7974 188.552 82.6374 190.312 85.1334 190.312C87.3094 190.312 88.7174 189.064 89.1654 187.464ZM91.5833 187.768C91.5833 189.528 92.4633 190.168 94.0153 190.168H95.3273V188.936H94.2552C93.3593 188.936 93.0393 188.632 93.0393 187.768V182.6H95.3273V181.4H93.0393V179.192H91.5833V181.4H90.4473V182.6H91.5833V187.768ZM95.8274 192.456H96.8034L98.5954 188.152H96.9954L95.8274 192.456ZM115.185 184.584C115.185 181.24 112.737 178.888 109.585 178.888C106.449 178.888 103.985 181.24 103.985 184.584C103.985 187.928 106.449 190.28 109.585 190.28C112.737 190.28 115.185 187.928 115.185 184.584ZM105.473 184.584C105.473 181.848 107.233 180.152 109.585 180.152C111.937 180.152 113.697 181.848 113.697 184.584C113.697 187.304 111.937 189.016 109.585 189.016C107.233 189.016 105.473 187.304 105.473 184.584ZM129.763 190.168H131.203V185C131.203 182.488 129.651 181.24 127.651 181.24C126.307 181.24 125.059 181.928 124.547 183.192C123.971 181.88 122.771 181.24 121.331 181.24C120.179 181.24 119.139 181.736 118.563 182.664V181.4H117.107V190.168H118.563V185.336C118.563 183.448 119.571 182.504 121.043 182.504C122.483 182.504 123.443 183.416 123.443 185.208V190.168H124.883V185.336C124.883 183.448 125.891 182.504 127.363 182.504C128.803 182.504 129.763 183.416 129.763 185.208V190.168ZM141.911 185.768C141.911 183 139.975 181.256 137.479 181.256C134.999 181.256 133.047 183 133.047 185.768C133.047 188.552 134.935 190.312 137.415 190.312C139.911 190.312 141.911 188.552 141.911 185.768ZM134.535 185.768C134.535 183.56 135.927 182.52 137.463 182.52C138.967 182.52 140.423 183.56 140.423 185.768C140.423 187.992 138.935 189.032 137.415 189.032C135.895 189.032 134.535 187.992 134.535 185.768ZM143.826 190.168H145.282V178.328H143.826V190.168ZM151.491 182.488C152.995 182.488 154.275 183.432 154.259 185.144H148.723C148.883 183.432 150.067 182.488 151.491 182.488ZM155.587 187.464H154.019C153.699 188.408 152.867 189.08 151.555 189.08C150.067 189.08 148.819 188.104 148.707 186.328H155.715C155.747 186.024 155.763 185.768 155.763 185.448C155.763 183.048 154.099 181.256 151.555 181.256C148.995 181.256 147.219 183 147.219 185.768C147.219 188.552 149.059 190.312 151.555 190.312C153.731 190.312 155.139 189.064 155.587 187.464ZM163.407 184.312V180.216H165.551C167.215 180.216 167.919 180.984 167.919 182.28C167.919 183.528 167.215 184.312 165.551 184.312H163.407ZM169.407 182.28C169.407 180.456 168.175 179.016 165.551 179.016H161.951V190.168H163.407V185.512H165.551C168.319 185.512 169.407 183.976 169.407 182.28ZM171.216 190.168H172.672V185.32C172.672 183.432 173.696 182.504 175.184 182.504C176.656 182.504 177.632 183.416 177.632 185.208V190.168H179.072V185C179.072 182.488 177.52 181.24 175.568 181.24C174.336 181.24 173.248 181.736 172.672 182.664V178.328H171.216V190.168ZM180.907 185.752C180.907 188.472 182.715 190.312 185.051 190.312C186.667 190.312 187.803 189.48 188.331 188.536V190.168H189.803V181.4H188.331V183C187.819 182.088 186.699 181.256 185.067 181.256C182.715 181.256 180.907 183.016 180.907 185.752ZM188.331 185.768C188.331 187.832 186.955 189.032 185.355 189.032C183.755 189.032 182.395 187.816 182.395 185.752C182.395 183.688 183.755 182.52 185.355 182.52C186.955 182.52 188.331 183.736 188.331 185.768ZM198.567 187.784C198.503 184.648 193.415 185.784 193.415 183.704C193.415 183 194.055 182.488 195.127 182.488C196.295 182.488 196.967 183.128 197.031 184.008H198.487C198.391 182.296 197.111 181.256 195.175 181.256C193.223 181.256 191.959 182.36 191.959 183.704C191.959 186.968 197.143 185.832 197.143 187.784C197.143 188.504 196.503 189.08 195.351 189.08C194.119 189.08 193.367 188.44 193.287 187.592H191.783C191.879 189.192 193.319 190.312 195.367 190.312C197.303 190.312 198.567 189.224 198.567 187.784ZM204.351 182.488C205.855 182.488 207.135 183.432 207.119 185.144H201.583C201.743 183.432 202.927 182.488 204.351 182.488ZM208.447 187.464H206.879C206.559 188.408 205.727 189.08 204.415 189.08C202.927 189.08 201.679 188.104 201.567 186.328H208.575C208.607 186.024 208.623 185.768 208.623 185.448C208.623 183.048 206.959 181.256 204.415 181.256C201.855 181.256 200.079 183 200.079 185.768C200.079 188.552 201.919 190.312 204.415 190.312C206.591 190.312 207.999 189.064 208.447 187.464ZM214.394 190.04H222.09V188.824H216.586C218.65 187.144 221.754 184.696 221.754 181.816C221.754 179.672 220.346 178.392 218.17 178.392C216.09 178.392 214.538 179.672 214.442 182.136H215.85C215.914 180.68 216.682 179.64 218.186 179.64C219.754 179.64 220.314 180.6 220.314 181.88C220.314 184.248 217.434 186.552 214.394 189V190.04ZM222.749 192.456H223.725L225.517 188.152H223.917L222.749 192.456ZM231.451 190.168H232.907V179.016H231.451V190.168ZM235.388 190.168H236.844V186.296L240.284 190.168H242.268L238.124 185.768L242.252 181.4H240.22L236.844 185.288V178.328H235.388V190.168ZM247.351 182.488C248.855 182.488 250.135 183.432 250.119 185.144H244.583C244.743 183.432 245.927 182.488 247.351 182.488ZM251.447 187.464H249.879C249.559 188.408 248.727 189.08 247.415 189.08C245.927 189.08 244.679 188.104 244.567 186.328H251.575C251.607 186.024 251.623 185.768 251.623 185.448C251.623 183.048 249.959 181.256 247.415 181.256C244.855 181.256 243.079 183 243.079 185.768C243.079 188.552 244.919 190.312 247.415 190.312C249.591 190.312 250.999 189.064 251.447 187.464ZM254.329 179.976C254.873 179.976 255.305 179.544 255.305 178.984C255.305 178.424 254.873 177.992 254.329 177.992C253.785 177.992 253.353 178.424 253.353 178.984C253.353 179.544 253.785 179.976 254.329 179.976ZM253.593 181.4V192.04C253.593 192.808 253.289 193.096 252.489 193.096H251.88V194.328H252.729C254.217 194.328 255.049 193.656 255.049 192.072V181.4H253.593ZM256.969 185.752C256.969 188.472 258.777 190.312 261.113 190.312C262.729 190.312 263.865 189.48 264.393 188.536V190.168H265.865V181.4H264.393V183C263.881 182.088 262.761 181.256 261.129 181.256C258.777 181.256 256.969 183.016 256.969 185.752ZM264.393 185.768C264.393 187.832 263.017 189.032 261.417 189.032C259.817 189.032 258.457 187.816 258.457 185.752C258.457 183.688 259.817 182.52 261.417 182.52C263.017 182.52 264.393 183.736 264.393 185.768ZM267.062 192.456H268.038L269.83 188.152H268.23L267.062 192.456ZM275.763 179.016V190.168H281.123V188.984H277.219V179.016H275.763ZM282.126 185.752C282.126 188.472 283.934 190.312 286.27 190.312C287.886 190.312 289.022 189.48 289.55 188.536V190.168H291.022V181.4H289.55V183C289.038 182.088 287.918 181.256 286.286 181.256C283.934 181.256 282.126 183.016 282.126 185.752ZM289.55 185.768C289.55 187.832 288.174 189.032 286.574 189.032C284.974 189.032 283.614 187.816 283.614 185.752C283.614 183.688 284.974 182.52 286.574 182.52C288.174 182.52 289.55 183.736 289.55 185.768ZM292.938 185.752C292.938 188.472 294.746 190.312 297.098 190.312C298.698 190.312 299.834 189.464 300.362 188.52V190.36C300.362 192.232 299.194 193.224 297.642 193.224C296.202 193.224 295.162 192.504 294.842 191.448H293.402C293.69 193.32 295.338 194.488 297.642 194.488C300.218 194.488 301.834 192.776 301.834 190.36V181.4H300.362V183C299.85 182.056 298.698 181.256 297.098 181.256C294.746 181.256 292.938 183.016 292.938 185.752ZM300.362 185.768C300.362 187.832 298.986 189.032 297.386 189.032C295.786 189.032 294.426 187.816 294.426 185.752C294.426 183.688 295.786 182.52 297.386 182.52C298.986 182.52 300.362 183.736 300.362 185.768ZM312.615 185.768C312.615 183 310.679 181.256 308.183 181.256C305.703 181.256 303.751 183 303.751 185.768C303.751 188.552 305.639 190.312 308.119 190.312C310.615 190.312 312.615 188.552 312.615 185.768ZM305.239 185.768C305.239 183.56 306.631 182.52 308.167 182.52C309.671 182.52 311.127 183.56 311.127 185.768C311.127 187.992 309.639 189.032 308.119 189.032C306.599 189.032 305.239 187.992 305.239 185.768ZM320.833 187.784C320.769 184.648 315.681 185.784 315.681 183.704C315.681 183 316.321 182.488 317.393 182.488C318.561 182.488 319.233 183.128 319.297 184.008H320.753C320.657 182.296 319.377 181.256 317.441 181.256C315.489 181.256 314.225 182.36 314.225 183.704C314.225 186.968 319.409 185.832 319.409 187.784C319.409 188.504 318.769 189.08 317.617 189.08C316.385 189.08 315.633 188.44 315.553 187.592H314.049C314.145 189.192 315.585 190.312 317.633 190.312C319.569 190.312 320.833 189.224 320.833 187.784Z" fill="white"/>
</svg>
