<svg width="25" height="20" viewBox="0 0 25 20" fill="none" xmlns="http://www.w3.org/2000/svg">
<path d="M15.6481 6.88601C16.4607 7.34419 16.7162 8.0928 16.2937 8.79858C16.2012 8.96445 16.0651 9.10181 15.9001 9.19576C15.6736 9.30613 15.6097 9.46006 15.5639 9.68879C15.394 10.5347 14.9583 11.2296 14.286 11.78C14.2134 11.8402 14.1814 11.9506 14.1255 12.0348C14.0922 12.1028 14.0453 12.1631 13.9875 12.212C13.3979 12.5678 12.8069 12.9214 12.2078 13.2605C12.1593 13.2828 12.1066 13.2943 12.0532 13.2943C11.9998 13.2943 11.947 13.2828 11.8985 13.2605C11.3075 12.925 10.7227 12.5792 10.1442 12.2229C10.0673 12.1757 10.0302 12.0639 9.97361 11.9826C9.93737 11.9146 9.89219 11.8519 9.83928 11.796C9.11749 11.2285 8.6375 10.4086 8.49598 9.50145C8.48252 9.45314 8.45943 9.40804 8.42812 9.36886C8.3968 9.32968 8.35789 9.29723 8.31373 9.27345C7.85555 9.03747 7.62973 8.65844 7.61594 8.15815C7.60214 7.67021 7.79093 7.26504 8.22732 7.02325C8.40449 6.9245 8.40885 6.80541 8.38997 6.64785C8.33478 6.17152 8.2629 5.6952 8.24039 5.21669C8.20772 4.53342 8.44515 3.9932 9.1335 3.72454C9.21265 3.69332 9.27437 3.57133 9.30849 3.47839C9.68244 2.46184 10.325 2.05304 11.4048 2.15542C11.6749 2.18083 11.9443 2.22222 12.2144 2.25054C12.8621 2.31662 13.5098 2.39141 14.1589 2.44005C14.3548 2.45155 14.5463 2.50332 14.7213 2.59215C14.8964 2.68098 15.0512 2.80495 15.1762 2.95632C15.6009 3.44717 15.8427 4.02006 15.8173 4.67284C15.7926 5.306 15.7244 5.93772 15.6757 6.57016C15.6641 6.67835 15.6561 6.78581 15.6481 6.88601Z" fill="white"/>
<path d="M10.1478 1.38571C9.40211 1.66672 8.93594 2.21057 8.61501 2.90183C8.58604 2.96714 8.54017 3.02354 8.48213 3.0652C7.47066 3.7187 7.2354 4.67208 7.40023 5.78811C7.40023 5.81497 7.40894 5.84184 7.41475 5.86798C7.4997 6.23103 7.46485 6.51712 7.18312 6.84387C6.48678 7.65275 6.59497 8.9278 7.38861 9.64955C7.65219 9.88916 7.77272 10.1527 7.84243 10.4947C7.48518 10.7075 7.12358 10.9304 6.75326 11.1359C6.71298 11.149 6.67037 11.1532 6.62829 11.1485C6.58621 11.1437 6.54564 11.13 6.50929 11.1083C5.91243 10.7648 5.31993 10.4134 4.72742 10.0627C4.68095 10.0358 4.60253 9.9988 4.60326 9.96686C4.60834 9.64229 4.31282 9.55152 4.14073 9.37363C3.59905 8.81888 3.24036 8.17192 3.12418 7.4037C3.11715 7.33356 3.09103 7.2667 3.04865 7.21037C3.00628 7.15404 2.94927 7.11041 2.88384 7.08421C2.03284 6.64201 1.97838 5.37059 2.80179 4.88047C3.00147 4.76139 3.02543 4.6394 2.99711 4.44481C2.93539 4.01423 2.85189 3.58364 2.83519 3.15088C2.80469 2.44075 3.00655 1.84389 3.74863 1.55345C3.81543 1.52731 3.859 1.42492 3.89821 1.35014C4.02092 1.11851 4.11604 0.868726 4.26126 0.653798C4.54299 0.237739 4.95978 -0.00986415 5.45571 0.000301358C6.1034 0.0257151 6.75254 0.12374 7.39877 0.183281C7.78579 0.219586 8.17353 0.269687 8.56055 0.276222C9.29392 0.290018 9.84794 0.65525 10.1478 1.38571Z" fill="white"/>
<path d="M16.2573 10.4897C16.3299 10.1687 16.4235 9.90223 16.6828 9.6648C17.6078 8.81815 17.5868 7.42984 16.6864 6.54253C16.6505 6.49665 16.6241 6.44402 16.6089 6.38777C16.5937 6.33152 16.5899 6.27279 16.5978 6.21506C16.7191 5.36333 16.7336 4.51669 16.5165 3.67731C16.2435 2.62445 15.6452 1.87947 14.5654 1.62388C14.6163 1.51061 14.6751 1.40242 14.715 1.28769C15.0229 0.407648 15.582 -0.0265644 16.5121 0.00611048C17.2244 0.0351548 17.9346 0.161498 18.6447 0.234834C18.9057 0.264788 19.1683 0.278852 19.4311 0.276949C19.6404 0.270001 19.8487 0.310026 20.0406 0.394085C20.2324 0.478143 20.403 0.604102 20.5398 0.762715C21.0111 1.28261 21.2529 1.89907 21.218 2.60122C21.1861 3.23511 21.1215 3.86683 21.059 4.49781C21.0423 4.66119 21.059 4.75558 21.2282 4.83691C21.6936 5.06273 21.8926 5.47443 21.886 5.96963C21.8903 6.2029 21.8292 6.4327 21.7096 6.63301C21.59 6.83333 21.4167 6.99617 21.2093 7.10309C21.1012 7.16965 21.0231 7.2756 20.9915 7.39861C20.8423 8.24619 20.4 9.01437 19.7419 9.56895C19.6431 9.6539 19.5966 9.7955 19.516 9.90514C19.4729 9.97002 19.4177 10.026 19.3534 10.07C18.7783 10.4149 18.2025 10.7583 17.6202 11.0909C17.5765 11.1159 17.528 11.1313 17.478 11.1362C17.4279 11.1411 17.3774 11.1353 17.3297 11.1192C16.9681 10.9224 16.6152 10.7017 16.2573 10.4897Z" fill="white"/>
<path d="M21.3943 17.2548C20.6682 17.2548 19.9421 17.2505 19.216 17.2548C19.0461 17.2548 18.98 17.212 18.9633 17.0326C18.8094 15.3452 18.648 13.6582 18.479 11.9717C18.4529 11.7161 18.5008 11.5585 18.7455 11.4329C19.1557 11.2216 19.5399 10.9609 19.945 10.7402C20.0585 10.6798 20.1902 10.6627 20.3153 10.6923C20.9446 10.8936 21.5696 11.1078 22.1902 11.3349C22.7414 11.5298 23.2194 11.8895 23.5594 12.3653C23.8993 12.8411 24.0847 13.4099 24.0904 13.9946C24.1056 14.9015 24.0969 15.8099 24.094 16.7153C24.094 17.1016 23.9408 17.249 23.5414 17.2505C22.8269 17.2577 22.111 17.2548 21.3943 17.2548Z" fill="white"/>
<path d="M15.9962 19.4069C15.2701 19.4069 14.5439 19.4069 13.8178 19.4069C13.6726 19.4069 13.5884 19.391 13.5717 19.2102C13.4134 17.4777 13.2476 15.7459 13.0743 14.0149C13.0562 13.8355 13.0968 13.7382 13.2595 13.6518C13.6951 13.4115 14.1141 13.1435 14.5512 12.9017C14.6651 12.8429 14.7966 12.8279 14.9208 12.8596C15.5501 13.0615 16.1748 13.2762 16.7949 13.5037C17.3509 13.6996 17.8324 14.0633 18.1729 14.5445C18.5134 15.0257 18.6961 15.6008 18.6958 16.1903C18.706 17.0878 18.7002 17.9852 18.6958 18.8827C18.6958 19.2595 18.5506 19.4069 18.1672 19.4091C17.4462 19.4098 16.7215 19.4069 15.9962 19.4069Z" fill="white"/>
<path d="M8.07906 19.407C7.37183 19.407 6.6646 19.407 5.95737 19.407C5.53986 19.407 5.40045 19.2669 5.39972 18.8552C5.39972 17.9839 5.39464 17.1125 5.39972 16.2412C5.40916 14.9524 6.14035 13.9176 7.35077 13.482C7.96361 13.2642 8.58515 13.0536 9.20162 12.8546C9.30887 12.8237 9.42379 12.8338 9.52401 12.8829C9.98291 13.1378 10.4375 13.4028 10.8797 13.686C10.9232 13.7231 10.9579 13.7695 10.9811 13.8218C11.0044 13.8741 11.0156 13.9309 11.014 13.9881C10.8869 15.4323 10.7475 16.8758 10.6103 18.3186C10.5827 18.609 10.5413 18.8995 10.5304 19.1848C10.5239 19.3678 10.4498 19.4107 10.2813 19.4092C9.54797 19.4027 8.81388 19.407 8.07906 19.407Z" fill="white"/>
<path d="M4.52873 17.2396C4.41546 17.2461 4.33632 17.2548 4.25644 17.2548C3.03223 17.2548 1.80801 17.2548 0.583791 17.2548C0.142317 17.2548 0.00290443 17.1096 0.00290443 16.6638C0 15.8208 0 14.977 0 14.134C0.00798719 12.7733 0.726108 11.7611 2.00841 11.3022C2.60527 11.0895 3.20431 10.8825 3.80698 10.6857C3.90582 10.6566 4.012 10.6654 4.10469 10.7104C4.57085 10.9718 5.03265 11.2427 5.48429 11.528C5.52566 11.5615 5.55905 11.6037 5.58204 11.6517C5.60502 11.6997 5.61702 11.7522 5.61717 11.8054C5.57723 12.4226 5.51842 13.0369 5.45234 13.6497C5.43596 13.7372 5.3969 13.8188 5.33907 13.8864C4.80205 14.5585 4.51533 15.3963 4.52801 16.2564C4.52946 16.573 4.52873 16.8903 4.52873 17.2396Z" fill="white"/>
<path d="M8.22587 11.2863L8.81547 12.0596L7.74156 12.4277C7.71469 12.1721 7.68274 11.9419 7.66895 11.7103C7.67526 11.6776 7.68826 11.6465 7.70712 11.619C7.72599 11.5915 7.75031 11.5682 7.77859 11.5506C7.92236 11.4547 8.07266 11.3756 8.22587 11.2863Z" fill="white"/>
<path d="M16.3378 12.4168L15.293 12.0595L15.8739 11.2957C16.4961 11.5984 16.5201 11.6544 16.3378 12.4168Z" fill="white"/>
</svg>
