<svg width="122" height="37" viewBox="0 0 122 37" fill="none" xmlns="http://www.w3.org/2000/svg">
<path d="M24.451 29.6933H19.043V7.8623H24.451V29.6933Z" fill="white"/>
<path d="M55.0574 10.1301H55.1348C56.2164 8.21844 57.8387 7.15137 59.8476 7.15137C60.6202 7.15137 61.3928 7.37352 62.0881 7.68507L61.4314 13.465C60.7747 12.9313 60.0021 12.6645 59.1909 12.6645C55.4437 12.6645 55.0574 16.4881 55.0574 19.8675V29.6936H49.6494V7.86252H55.0574V10.1301Z" fill="white"/>
<path d="M68.1914 19.7784C68.1914 22.535 69.1187 25.6474 71.9382 25.6474C73.7153 25.6474 74.8363 24.4026 75.5695 22.6684L80.5541 23.6024C79.2407 27.9597 75.9172 30.4051 71.9397 30.4051C66.0683 30.4051 62.4756 25.6017 62.4756 18.9785C62.4756 12.3553 65.5252 7.15137 71.669 7.15137C77.8885 7.15137 80.6697 12.4423 80.6697 19.0225V19.7784H68.1914ZM75.5695 15.9091C75.2991 13.6859 74.0625 11.506 71.9759 11.506C69.8125 11.506 68.6142 13.6408 68.3447 15.9091H75.5695Z" fill="white"/>
<path d="M88.5858 9.86357H88.6631C89.7835 7.90722 91.6771 7.15137 93.6078 7.15137C98.7083 7.15137 100.175 11.2875 100.175 16.3547V29.6936H94.7652V18.1333C94.7652 15.5101 94.8812 12.1311 91.8295 12.1311C88.6234 12.1311 88.5837 16.2673 88.5837 18.8891V29.6936H83.1777V7.86252H88.5858V9.86357Z" fill="white"/>
<path d="M116.592 27.648H116.515C115.395 29.4266 113.385 30.4046 111.416 30.4046C105.853 30.4046 102.686 24.5803 102.686 18.6669C102.686 12.8869 105.892 7.15126 111.338 7.15126C113.309 7.15126 115.317 8.12927 116.515 9.86346H116.592V0H122V29.6934H116.592V27.648ZM117.133 18.7556C117.133 15.8202 115.433 12.6644 112.652 12.6644C109.871 12.6644 108.171 15.8212 108.171 18.7556C108.171 21.6899 109.871 24.8931 112.652 24.8931C115.433 24.8931 117.133 21.6903 117.133 18.7556Z" fill="white"/>
<path d="M2.95227 19.5067C1.37603 17.9159 0.376785 15.9799 0.0919086 13.616C-0.246002 10.8074 0.341719 8.26296 1.95679 6.10047C3.81733 3.60942 6.2169 2.57438 9.04654 2.80654C9.39778 2.83522 9.8235 2.99266 10.0806 2.82221C10.3289 2.65743 10.395 2.14108 10.5564 1.78817C11.3418 0.0729872 10.95 0.275126 12.7039 0.268455C13.9643 0.263785 15.2247 0.263785 16.4849 0.268455C17.0761 0.268455 17.1996 0.494611 16.9347 1.11737C16.2535 2.71848 15.5659 4.31502 14.8719 5.907C14.7365 6.21688 14.7052 6.44071 14.9009 6.76893C17.1793 10.5996 16.9164 15.3098 14.1763 18.7208C12.6813 20.5808 10.7683 21.5308 8.56257 21.6692C8.44056 21.6769 8.29015 21.6185 8.2006 21.6812C8.00006 21.8223 7.82966 22.0201 7.64708 22.1949C7.83082 22.3877 8.00122 22.7229 8.20089 22.7479C8.9625 22.8433 9.73859 22.785 10.5002 22.8814C13.2849 23.2326 15.5718 26.1483 15.6958 29.2908C15.8407 32.945 13.5011 35.9727 10.7558 36.429C10.1035 36.5374 9.43401 36.5354 8.77239 36.5398C6.70696 36.5528 4.64124 36.5454 2.57581 36.5441C1.86637 36.5441 1.77451 36.3613 2.09648 35.6065C2.74071 34.0961 3.39248 32.5897 4.0257 31.073C4.26334 30.5039 4.59516 30.2431 5.17216 30.2598C6.62407 30.3018 8.07715 30.2711 9.52993 30.2788C9.90204 30.2808 10.2255 30.1944 10.2223 29.685C10.2191 29.1613 9.89393 29.0486 9.49776 29.0513C8.30754 29.0599 7.11703 29.0656 5.92681 29.0513C2.58625 29.0146 0.538495 25.274 1.9565 21.7953C2.26601 21.0368 2.60827 20.2956 2.95227 19.5067ZM10.9088 12.1993C10.9071 10.5152 9.66121 9.08653 8.20263 9.0972C6.74405 9.10788 5.49413 10.5449 5.49616 12.2083C5.49819 13.9005 6.71333 15.3195 8.18061 15.3395C9.6531 15.3582 10.9108 13.9112 10.9088 12.1993Z" fill="white"/>
<path d="M30.3986 19.5067C28.8223 17.9159 27.8225 15.9799 27.5382 13.616C27.2003 10.808 27.7877 8.26296 29.4031 6.10047C31.2636 3.60942 33.6632 2.57438 36.4929 2.80654C36.8441 2.83522 37.2698 2.99266 37.5269 2.82221C37.7752 2.65743 37.8413 2.14108 38.0027 1.78817C38.7881 0.0729872 38.396 0.275126 40.1502 0.268455C41.4104 0.263785 42.6708 0.263785 43.9312 0.268455C44.5224 0.268455 44.6459 0.494611 44.381 1.11737C43.6998 2.71848 43.0122 4.31502 42.3182 5.907C42.1829 6.21688 42.1516 6.44071 42.3472 6.76893C44.6256 10.5996 44.3628 15.3098 41.6227 18.7208C40.129 20.5791 38.216 21.5308 36.0103 21.6692C35.8883 21.6769 35.7379 21.6185 35.6484 21.6812C35.4478 21.8223 35.2774 22.0201 35.0948 22.1949C35.2786 22.3877 35.449 22.7229 35.6487 22.7479C36.4103 22.8433 37.1864 22.785 37.948 22.8814C40.7327 23.2326 43.0195 26.1483 43.1436 29.2908C43.2885 32.945 40.9489 35.9727 38.2036 36.429C37.5512 36.5374 36.8818 36.5354 36.2201 36.5398C34.1544 36.5528 32.089 36.5454 30.0236 36.5441C29.3141 36.5441 29.2223 36.3613 29.544 35.6065C30.1885 34.0961 30.8402 32.5897 31.4735 31.073C31.7111 30.5039 32.0429 30.2431 32.6199 30.2598C34.0718 30.3018 35.5249 30.2711 36.9774 30.2788C37.3498 30.2808 37.6729 30.1944 37.67 29.685C37.6668 29.1613 37.3417 29.0486 36.9455 29.0513C35.7553 29.0599 34.5648 29.0656 33.3746 29.0513C30.034 29.0146 27.9863 25.274 29.4043 21.7953C29.7123 21.0368 30.0546 20.2956 30.3986 19.5067ZM38.3551 12.1993C38.3534 10.5152 37.109 9.08653 35.6489 9.0972C34.1889 9.10788 32.9404 10.5449 32.9425 12.2083C32.9445 13.9005 34.1596 15.3195 35.6269 15.3395C37.0991 15.3582 38.3572 13.9112 38.3551 12.1993Z" fill="white"/>
</svg>
